<svg id="OBJECTS" xmlns="http://www.w3.org/2000/svg" xmlns:xlink="http://www.w3.org/1999/xlink" viewBox="0 0 787.37 500"><defs><style>.cls-1,.cls-22,.cls-70{fill:none;}.cls-12,.cls-14,.cls-18,.cls-2,.cls-25,.cls-3,.cls-34,.cls-4,.cls-41,.cls-48,.cls-74,.cls-75{fill:#fff;}.cls-3{opacity:0.8;}.cls-4,.cls-41{font-size:11.52px;}.cls-4,.cls-41,.cls-74,.cls-75{font-family:Montserrat-ExtraBold, Montserrat;font-weight:800;}.cls-5{letter-spacing:-0.01em;}.cls-6{letter-spacing:-0.01em;}.cls-7{letter-spacing:0em;}.cls-8{letter-spacing:0.02em;}.cls-9{letter-spacing:0em;}.cls-10{letter-spacing:-0.01em;}.cls-11{letter-spacing:0em;}.cls-12{font-size:6.98px;}.cls-12,.cls-18{font-family:UniformBlack-Regular, Uniform Black;}.cls-13{letter-spacing:-0.02em;}.cls-14{font-size:3.93px;font-family:UniformBold-Regular, Uniform Bold;letter-spacing:0.03em;}.cls-15{letter-spacing:0em;}.cls-16{letter-spacing:-0.03em;}.cls-17{letter-spacing:0em;}.cls-18{font-size:7.75px;}.cls-19{letter-spacing:0.3em;}.cls-20{letter-spacing:-0.14em;}.cls-21,.cls-23{fill:#f9fbfc;}.cls-21,.cls-22{opacity:0.4;}.cls-22{stroke:#f9fbfc;}.cls-22,.cls-70{stroke-miterlimit:10;}.cls-24{fill:#afafaf;}.cls-25{font-size:9px;}.cls-25,.cls-48{font-family:Montserrat-Bold, Montserrat;font-weight:700;}.cls-26{letter-spacing:-0.03em;}.cls-27{letter-spacing:-0.02em;}.cls-28{letter-spacing:-0.01em;}.cls-29{letter-spacing:-0.02em;}.cls-30{letter-spacing:0em;}.cls-31{letter-spacing:-0.01em;}.cls-32{clip-path:url(#clip-path);}.cls-33{clip-path:url(#clip-path-2);}.cls-34,.cls-59,.cls-60,.cls-66,.cls-67,.cls-68{fill-rule:evenodd;}.cls-35{clip-path:url(#clip-path-3);}.cls-36{clip-path:url(#clip-path-5);}.cls-37{clip-path:url(#clip-path-7);}.cls-38{clip-path:url(#clip-path-8);}.cls-39{fill:#343533;}.cls-40{clip-path:url(#clip-path-9);}.cls-41{letter-spacing:-0.01em;}.cls-42{letter-spacing:-0.01em;}.cls-43{letter-spacing:-0.01em;}.cls-44{letter-spacing:-0.02em;}.cls-45{letter-spacing:0em;}.cls-46{letter-spacing:-0.06em;}.cls-47{letter-spacing:-0.01em;}.cls-48{font-size:8px;}.cls-49{letter-spacing:-0.02em;}.cls-50{letter-spacing:-0.01em;}.cls-51{letter-spacing:-0.01em;}.cls-52{letter-spacing:-0.01em;}.cls-53{letter-spacing:-0.03em;}.cls-54{letter-spacing:-0.01em;}.cls-55{letter-spacing:0em;}.cls-56{letter-spacing:-0.01em;}.cls-57{clip-path:url(#clip-path-10);}.cls-58,.cls-59{fill:#35465d;}.cls-60{fill:#ea5628;}.cls-61{clip-path:url(#clip-path-12);}.cls-62{clip-path:url(#clip-path-14);}.cls-63{clip-path:url(#clip-path-15);}.cls-64{clip-path:url(#clip-path-17);}.cls-65{clip-path:url(#clip-path-18);}.cls-66,.cls-69{fill:#848484;}.cls-67{fill:#1f1a17;}.cls-70{stroke:#1f1a17;stroke-width:0.02px;}.cls-71{clip-path:url(#clip-path-20);}.cls-72{clip-path:url(#clip-path-22);}.cls-73{clip-path:url(#clip-path-24);}.cls-74{font-size:4.95px;}.cls-75{font-size:6.76px;}.cls-76{letter-spacing:-0.01em;}.cls-77{letter-spacing:-0.01em;}.cls-78{clip-path:url(#clip-path-26);}</style><clipPath id="clip-path"><rect class="cls-1" x="82.61" y="361.63" width="21.31" height="21.31"/></clipPath><clipPath id="clip-path-2"><rect class="cls-1" x="82.61" y="364.73" width="18.2" height="18.2"/></clipPath><clipPath id="clip-path-3"><rect class="cls-1" x="131.98" y="365.99" width="35.25" height="11.89"/></clipPath><clipPath id="clip-path-5"><rect class="cls-1" x="37.36" y="385.57" width="40.67" height="7.58"/></clipPath><clipPath id="clip-path-7"><rect class="cls-1" x="84.46" y="384.65" width="36.92" height="12.02"/></clipPath><clipPath id="clip-path-8"><rect class="cls-1" x="84.46" y="384.65" width="36.92" height="12.02"/></clipPath><clipPath id="clip-path-9"><rect class="cls-1" x="126.07" y="382.93" width="41.38" height="15.02"/></clipPath><clipPath id="clip-path-10"><rect class="cls-1" x="322.11" y="219.25" width="105.77" height="58.47"/></clipPath><clipPath id="clip-path-12"><rect class="cls-1" x="596.15" y="115.38" width="39.7" height="9.66"/></clipPath><clipPath id="clip-path-14"><path class="cls-2" d="M599.11,116.76a.42.42,0,1,1,.84,0,.42.42,0,1,1-.84,0m1.63-1.11a5.93,5.93,0,0,0-1.07.09c-.95.17-1.12.52-1.12,1.16v.86h2.24V118h-3.08a1.41,1.41,0,0,0-1.4,1.14,4.87,4.87,0,0,0-.16,1.13v0a4.57,4.57,0,0,0,.16,1.13c.16.66.54,1.14,1.19,1.14h.77v-1a1.42,1.42,0,0,1,1.4-1.39h2.24A1.12,1.12,0,0,0,603,119V116.9a1.25,1.25,0,0,0-1.12-1.16,7.17,7.17,0,0,0-1.13-.09h0"/></clipPath><clipPath id="clip-path-15"><path class="cls-2" d="M601.63,123.88a.42.42,0,0,1,.42-.43.43.43,0,1,1-.42.43m1.68-5.84v1a1.43,1.43,0,0,1-1.4,1.42h-2.24a1.15,1.15,0,0,0-1.12,1.14v2.13c0,.61.53,1,1.12,1.14a4.21,4.21,0,0,0,1.1.18h0a4.27,4.27,0,0,0,1.11-.18c.57-.16,1.12-.49,1.12-1.14v-.85h-2.24v-.28h3.36c.66,0,.9-.46,1.13-1.14a3.92,3.92,0,0,0,0-2.28c-.17-.65-.47-1.14-1.13-1.14Z"/></clipPath><clipPath id="clip-path-17"><rect class="cls-1" x="640.73" y="114.74" width="36.33" height="9.29"/></clipPath><clipPath id="clip-path-18"><rect class="cls-1" x="681.06" y="114.74" width="36.78" height="8.71"/></clipPath><clipPath id="clip-path-20"><rect class="cls-1" x="596.15" y="130.86" width="9.14" height="14.75"/></clipPath><clipPath id="clip-path-22"><rect class="cls-1" x="612.95" y="130.22" width="27.19" height="14.36"/></clipPath><clipPath id="clip-path-24"><rect class="cls-1" x="641.32" y="114.19" width="18.16" height="10.86"/></clipPath><clipPath id="clip-path-26"><rect class="cls-1" x="37.85" y="366.26" width="38.32" height="12.04"/></clipPath></defs><title>codete_lambdadays_graf</title><path class="cls-2" d="M375.17,358.45A113.72,113.72,0,1,1,488.88,244.73,113.85,113.85,0,0,1,375.17,358.45Zm0-226.56A112.84,112.84,0,1,0,488,244.73,113,113,0,0,0,375.17,131.89Z"/><path class="cls-2" d="M375.17,347.79A103.06,103.06,0,1,1,478.22,244.73,103.17,103.17,0,0,1,375.17,347.79Zm0-205.24A102.18,102.18,0,1,0,477.35,244.73,102.3,102.3,0,0,0,375.17,142.55Z"/><circle class="cls-3" cx="375.17" cy="244.73" r="87.75" transform="matrix(0.97, -0.23, 0.23, 0.97, -46.57, 93.79)"/><rect class="cls-2" x="626.54" y="234.48" width="136.84" height="0.75"/><text class="cls-4" transform="translate(626.54 228.71)"><tspan class="cls-5">E</tspan><tspan class="cls-6" x="7.63" y="0">V</tspan><tspan x="16.28" y="0">EN</tspan><tspan class="cls-7" x="33.32" y="0">T</tspan><tspan class="cls-8" x="40.61" y="0">S</tspan><tspan class="cls-9" x="48.3" y="0">, MEE</tspan><tspan class="cls-10" x="81.4" y="0">T</tspan><tspan class="cls-11" x="88.59" y="0">UPS</tspan></text><g id="Warstwa_2" data-name="Warstwa 2"><g id="Layer_1" data-name="Layer 1"><g id="ccon5"><polygon class="cls-2" points="656 254.61 657.2 254.61 657.2 251.01 658.84 251.01 658.84 250.02 654.36 250.02 654.36 251.01 656 251.01 656 254.61"/><polygon class="cls-2" points="652.68 253.44 650.56 253.44 650.56 252.8 651.72 252.8 651.72 251.82 650.56 251.82 650.56 251.12 652.68 251.12 652.68 250.08 649.39 250.08 649.39 254.48 652.68 254.48 652.68 253.44"/><path class="cls-2" d="M667.78,254.54a2.09,2.09,0,0,0,1.76-.81l-.83-.75a1.07,1.07,0,0,1-.9.47,1.17,1.17,0,0,1,0-2.33,1,1,0,0,1,.84.4l.86-.76a2,2,0,0,0-1.69-.74,2.26,2.26,0,0,0-2.29,2.23v.05A2.2,2.2,0,0,0,667.78,254.54Z"/><polygon class="cls-2" points="678.76 251.88 680.53 254.51 681.7 254.51 681.7 250.08 680.53 250.08 680.53 252.62 678.82 250.08 677.59 250.08 677.59 254.51 678.76 254.51 678.76 251.88"/><polygon class="cls-2" points="663.66 253.44 661.53 253.44 661.53 252.8 662.69 252.8 662.69 251.82 661.53 251.82 661.53 251.12 663.66 251.12 663.66 250.08 660.37 250.08 660.37 254.48 663.66 254.48 663.66 253.44"/><path class="cls-2" d="M673.32,254.54a2.25,2.25,0,0,0,2.29-2.23v-.05a2.2,2.2,0,0,0-2.25-2.24,2.25,2.25,0,0,0-2.29,2.23v.05A2.18,2.18,0,0,0,673.32,254.54Zm0-3.42a1.16,1.16,0,1,1-1.11,1.16,1.1,1.1,0,0,1,1.11-1.16Z"/><path class="cls-2" d="M634.09,254.55a2.12,2.12,0,0,0,1.76-.81L635,253a1.06,1.06,0,0,1-.91.47,1.17,1.17,0,0,1,0-2.33,1,1,0,0,1,.84.4l.87-.76a2,2,0,0,0-1.69-.74,2.26,2.26,0,0,0-2.29,2.23v.05A2.18,2.18,0,0,0,634.09,254.55Z"/><path class="cls-2" d="M639.74,254.55a2.27,2.27,0,0,0,2.3-2.23v0a2.2,2.2,0,0,0-2.26-2.24,2.25,2.25,0,0,0-2.29,2.23v.05A2.2,2.2,0,0,0,639.74,254.55Zm0-3.42a1.16,1.16,0,1,1-1.1,1.16A1.1,1.1,0,0,1,639.76,251.13Z"/><path class="cls-2" d="M647.84,252.27a2.21,2.21,0,0,0-2.38-2.18h-1.62v4.4h1.58A2.28,2.28,0,0,0,647.84,252.27ZM645,251.13h.46a1.16,1.16,0,1,1,0,2.32H645Z"/><path class="cls-2" d="M627.66,246.05v12.22H685.2l0-12.22Zm56.27,10.81H629.2v-9.24h54.73Z"/></g></g></g><text class="cls-12" transform="translate(709.58 252.31)">F<tspan class="cls-13" x="4.26" y="0">r</tspan><tspan x="7.11" y="0">o</tspan><tspan class="cls-13" x="11.51" y="0">n</tspan><tspan x="15.67" y="0">tClouders</tspan></text><text class="cls-14" transform="translate(709.96 256.87)">MEETUP K<tspan class="cls-15" x="21.19" y="0">r</tspan><tspan x="22.8" y="0">a</tspan><tspan class="cls-16" x="25.14" y="0">k</tspan><tspan class="cls-17" x="27.37" y="0">รณ</tspan><tspan x="29.87" y="0">w 2019</tspan></text><path class="cls-2" d="M705.13,250.27a4.81,4.81,0,0,1-.11,1,4.68,4.68,0,0,1-.79,1.76,4.77,4.77,0,0,1-1.86,1.53,4.74,4.74,0,0,0-4.06-5.21,4.66,4.66,0,0,0-2.61.37,4.73,4.73,0,0,1,9.43.54Z"/><path class="cls-2" d="M697.63,256.87a2.19,2.19,0,0,1-.36,0,2.77,2.77,0,0,1-1.86-1.09,2.82,2.82,0,0,1,.52-3.94h0a2.79,2.79,0,0,1,2.09-.55,2.85,2.85,0,0,1,2.41,3.18,2.75,2.75,0,0,0-.05.57,3.73,3.73,0,0,0,.69,2.2,3.68,3.68,0,0,0,2.43,1.53,3.24,3.24,0,0,0,.62,0,3.74,3.74,0,0,0,3.68-3.11,3.86,3.86,0,0,0-.78-2.91,4.15,4.15,0,0,0-2-1.48,4.68,4.68,0,0,1-.79,1.76,2.19,2.19,0,0,1,1.29.87,2,2,0,0,1,.42,1.45,1.83,1.83,0,1,1-3.6-.63v0a.59.59,0,0,1,0-.13,4.74,4.74,0,0,0-4.06-5.21,4.66,4.66,0,0,0-2.61.37,6,6,0,0,0-.9.54,4.74,4.74,0,0,0-.92,6.63,4.72,4.72,0,0,0,3.12,1.84,4.26,4.26,0,0,0,.61,0h.09a1,1,0,0,0,.95-.95h0a1,1,0,0,0-.95-1Z"/><text class="cls-18" transform="translate(627.72 271.17)">SH<tspan class="cls-19" x="10.54" y="0"> </tspan><tspan class="cls-20" x="15.13" y="0"> </tspan><tspan x="16.31" y="0" xml:space="preserve">HAPPENS   </tspan></text><path class="cls-2" d="M637.64,273.27l.05,0v.18h0v-.06a1.29,1.29,0,0,0,0-.24c0-.07,0-.11,0-.12a0,0,0,0,0,0,0,.43.43,0,0,0-.05.1,2.11,2.11,0,0,1-.08.22l-.11.29a2.49,2.49,0,0,1-.11.29v-.19a.19.19,0,0,1-.05.13V274l0,0c0,.08-.06.15-.09.21l-.06.11h0s0-.08,0-.19a3.92,3.92,0,0,1,.06-.4q0-.24.09-.51c0-.18.06-.34.09-.49s.07-.33.11-.53l-.69,2.91h0a.7.7,0,0,1,0-.27c0-.16.06-.36.1-.6s.1-.5.16-.77.1-.54.15-.77l.12-.6a.79.79,0,0,0,0-.25h0a.66.66,0,0,0-.09.27c0,.15-.08.32-.12.52s-.08.42-.13.64-.08.42-.12.59l-.09.09-.06.38,0-.11a.05.05,0,0,1,0-.07c0-.08,0-.18.06-.31a2.6,2.6,0,0,1,.06-.3c.06-.3.12-.58.17-.85s.11-.53.15-.78h0l.22-1.07.36-1.73c.11-.48.19-.89.27-1.22s.13-.6.18-.81.09-.37.13-.49c.19-.65.19-.91.37-1.38s.33-.87.48-1.19a6.44,6.44,0,0,1,.39-.76,3.48,3.48,0,0,1,.28-.4l.22-.24a.38.38,0,0,1,.23-.11,1.4,1.4,0,0,1,.36,0,1.31,1.31,0,0,1,.38.09.87.87,0,0,1,.31.18l.09.09a.58.58,0,0,1,0,.2c0,.12-.06.26-.11.43s-.09.35-.15.55-.11.37-.16.54-.12.46-.19.69-.15.45-.21.67c-.13.44-.06.49-.14.78s-.15.52-.2.7-.08.33-.11.43,0,.2-.07.29a2,2,0,0,0-.05.24l-.08.3-.15.49-.24.8c-.11.32-.2.65-.29,1s-.18.63-.27.92-.16.54-.23.76a2.83,2.83,0,0,1-.2.49l0-.14v.11l0,.05v0a2,2,0,0,0-.15.22,1.08,1.08,0,0,0-.11.28l0,0a.07.07,0,0,1,0,.06h0s0,0,0-.1a1.27,1.27,0,0,1,0-.2,1.25,1.25,0,0,0,0-.21.26.26,0,0,0-.06-.15,7.34,7.34,0,0,1-.12.85.75.75,0,0,1-.09.31s0,0,0,0a.39.39,0,0,1-.07-.18,1.3,1.3,0,0,1,0-.26l0,.05,0,.06v-.13l-.08.09,0,.14h0s0-.08,0-.2,0-.26.07-.39l0,0Zm.11.65-.24.72.12-.66.12-.1Zm.33-.45a.52.52,0,0,1,0,.21.86.86,0,0,0-.07.21v.17h0V274a.64.64,0,0,1,.06-.18.34.34,0,0,0,0-.19Zm-.11.42h0v0Zm.6-1.25a1.13,1.13,0,0,0,0,.25l0,.05a.58.58,0,0,1,0-.19.46.46,0,0,1,.09-.17v-.17A.4.4,0,0,0,638.57,272.64ZM636.91,274l-.24.72.08-.43a1.53,1.53,0,0,0,.15-.46Zm.43-.13a.23.23,0,0,1,0,.09ZM638,273l0-.06v-.17l0,.06Zm-.23,0v0Zm0-.47h0v0l0,.2,0,.12,0-.17v-.2Zm.71-.5v0h0v0Zm-.47,0v0Z"/><path class="cls-2" d="M643.4,264a6.77,6.77,0,0,1,.48-.8,4.29,4.29,0,0,1,.49-.64,3.34,3.34,0,0,1,.47-.46,1.89,1.89,0,0,1,.43-.26h0s0,0,0,0a.89.89,0,0,1,0,.11.26.26,0,0,0,0,.1s0,0,0,0,.06,0,.1-.08l.13-.18.12-.17c0-.06,0-.08.07-.08h0v0a1.05,1.05,0,0,1,0,.13l-.06.19a1.8,1.8,0,0,0,0,.19l0,.12a1.21,1.21,0,0,0,.14-.2l.18-.3.17-.27q.08-.12.09-.12h0a1.2,1.2,0,0,1-.09.32c-.07.19-.19.48-.37.9l.16-.23.18-.26.15-.2c.05-.06.08-.08.09-.08s0,0,0,0,0,0,0,0a.79.79,0,0,0-.06.22.86.86,0,0,0,0,.22.49.49,0,0,1-.06.23c0,.13-.1.26-.16.42l-.18.46-.17.4,1.31-.06a12,12,0,0,1,1.22,0,9.16,9.16,0,0,1,1,.12,2.76,2.76,0,0,1,.75.24.1.1,0,0,1,.06.07s0,0-.11.06l-.23.06-.23.05-.1,0s0,0,0,0l.12,0,.13,0,.09,0h-.43l-.11,0-.06,0,0,0,1.39.06.17,0c.05,0,.08,0,.08,0s-.05,0-.15,0l-.43,0-.34,0h-.36l-.49,0h0s0,0-.06,0h-.14l-.24,0,.21,0,.19,0,1.08-.07,1-.06.75,0c.19,0,.29,0,.29,0s0,0-.15,0h-.26s.05,0,.12,0h.14l.15,0h.08s0,0,0,0,0,0-.08,0a1.79,1.79,0,0,1-.29.05l-.59.08-.94.1a.65.65,0,0,1-.2,0,.74.74,0,0,1-.21,0h-.49l-.17,0h.44l.27,0,.12,0s0,0,0,0h-.14l-.39,0-.68.06-.85.06-.94.06-1,.08-.92.07-.1,0h-.24a12,12,0,0,0-.47,1.11c-.16.4-.3.83-.45,1.27s-.28.9-.41,1.37-.25.91-.35,1.35-.19.86-.27,1.25-.14.76-.18,1.07a.13.13,0,0,1-.08.12.53.53,0,0,1-.19.05,1.64,1.64,0,0,1-.47-.05,2.2,2.2,0,0,1-.53-.22,1.47,1.47,0,0,1-.43-.35.81.81,0,0,1-.21-.48v0a9,9,0,0,1,0-.91,6.78,6.78,0,0,1,.1-.88c0-.29.11-.61.19-.94s.18-.69.31-1.09l.08-.32c.05-.17.1-.37.17-.6s.16-.48.27-.75a6.91,6.91,0,0,1,.36-.79h-.17c-.46,0-.52.15-.92,0a1.78,1.78,0,0,1-.88-.56c-.12-.22.07-.45.2-.61a1.39,1.39,0,0,1,.59-.47A16.94,16.94,0,0,1,643.4,264Zm.77-.75,0,0s0,0,0,0v0h.09Zm.18.55h0v0l-.05-.06-.07,0,0,0s0,0,0,0,0,.11.12.1Zm.38-1.25a.09.09,0,0,0-.09,0l-.06,0a0,0,0,0,0,0,0l.1.07,0,0,0,0Zm-.06.52a.05.05,0,0,0,0,0s0,0,0,0l0,0,0,0,0,0-.05,0Zm.54-1-.06,0a.21.21,0,0,0-.07.1,0,0,0,0,1,0,0s0,0,0,0,0,0,0,0h0s0,0,.06-.1A.27.27,0,0,0,645.21,262.09Zm.36.58a.26.26,0,0,0-.09.05.09.09,0,0,0,0,.06.37.37,0,0,1,0,.09l-.09.19-.1.18c0,.06,0,.1,0,.11l.07-.11c0-.07.09-.14.13-.22a2.53,2.53,0,0,0,.13-.22Zm-.2,1a0,0,0,0,1,0,0s0,0,0,0h0a.7.7,0,0,0,.12-.19c.07-.13.15-.27.23-.43l.23-.45a1.08,1.08,0,0,0,.09-.25l-.17.32-.16.3-.16.3-.18.32Zm0-1.16v0s0,0,0,0l.07-.11,0-.09a.06.06,0,0,0,0,0,.71.71,0,0,0-.14.19Zm.69-1.76-.19.34a.74.74,0,0,0-.08.12l-.16.22c-.05.08-.11.15-.16.22s-.08.09-.1.09a.86.86,0,0,0,.07-.12,2.52,2.52,0,0,0,.15-.24c.06-.08.13-.19.22-.33v0h0l0,0Zm4.56,3.68a.5.5,0,0,1-.27.08h-.55l.18,0,.18,0h.46Z"/><path class="cls-21" d="M606.15,225.61a35.65,35.65,0,1,1-49.65-8.76A35.64,35.64,0,0,1,606.15,225.61Z"/><path class="cls-22" d="M606.15,225.61a35.65,35.65,0,1,1-49.65-8.76A35.64,35.64,0,0,1,606.15,225.61Z"/><path class="cls-23" d="M601.31,229a29.74,29.74,0,1,1-41.42-7.3A29.73,29.73,0,0,1,601.31,229Z"/><rect class="cls-2" x="487.87" y="245.55" width="53.43" height="1"/><path class="cls-2" d="M492.17,246.05a4.3,4.3,0,1,1-4.3-4.29A4.3,4.3,0,0,1,492.17,246.05Z"/><path class="cls-2" d="M544.17,246.05a2.87,2.87,0,1,1-2.87-2.87A2.87,2.87,0,0,1,544.17,246.05Z"/><path class="cls-24" d="M588.31,234.68h-2.44v-2a1.38,1.38,0,0,0-1.52-1.23h-2.09a1.22,1.22,0,0,0-1.35,1.23v2h-8.49v-2a1.22,1.22,0,0,0-1.35-1.23H569a1.37,1.37,0,0,0-1.52,1.23v2H565.2a2.63,2.63,0,0,0-2.7,2.55,1.09,1.09,0,0,0,0,.18v20.46a2.88,2.88,0,0,0,2.69,3h22.93a2.88,2.88,0,0,0,2.69-3V237.41A2.62,2.62,0,0,0,588.31,234.68Zm-6-1.77h2.19v3.9h-2.19Zm-13.28,0h2v3.9h-2Zm20.43,25a1.47,1.47,0,0,1-1.28,1.59H565.2a1.47,1.47,0,0,1-1.28-1.59V242.82h25.49v15.05Zm0-20.46v4H563.92v-4A1.21,1.21,0,0,1,565,236.1h2.45v.78a1.46,1.46,0,0,0,1.52,1.34h2.09a1.32,1.32,0,0,0,1.35-1.27v-.85h8.49v.78a1.31,1.31,0,0,0,1.28,1.34h2.16a1.46,1.46,0,0,0,1.52-1.34v-.78h2.26a1.2,1.2,0,0,1,1.28,1.12Z"/><path class="cls-24" d="M572.74,252.49,572.1,256a.68.68,0,0,0,.07.44.7.7,0,0,0,1,.3l3.19-1.66,3.19,1.66.31.07a.71.71,0,0,0,.43-.14.7.7,0,0,0,.28-.67l-.63-3.54,2.58-2.48a.8.8,0,0,0,.18-.74.73.73,0,0,0-.57-.46l-3.54-.54L577,245.05a.75.75,0,0,0-.33-.33.72.72,0,0,0-1,.33l-1.59,3.22-3.54.54a.73.73,0,0,0-.57.46.8.8,0,0,0,.18.74Zm1.94-2.87a.65.65,0,0,0,.5-.39l1.13-2.27,1.13,2.27a.65.65,0,0,0,.5.39l2.51.35-1.8,1.74a.75.75,0,0,0-.22.64l.43,2.51-2.23-1.21-.32-.07-.32.07-2.23,1.21.43-2.51a.75.75,0,0,0-.22-.64l-1.8-1.74Z"/><rect class="cls-2" x="66.17" y="100.13" width="91.29" height="0.75"/><text class="cls-4" transform="translate(92.21 94.36)">2 OFFICES </text><text class="cls-25" transform="translate(63.81 113.7)">KRA<tspan class="cls-26" x="20.17" y="0">K</tspan><tspan class="cls-27" x="26.6" y="0">ร</tspan><tspan x="33.99" y="0" xml:space="preserve">W &amp;  </tspan><tspan class="cls-28" x="58.65" y="0">L</tspan><tspan x="64.01" y="0">UBLIN</tspan></text><path class="cls-21" d="M194.25,90a35.64,35.64,0,1,0,45.69,21.3A35.64,35.64,0,0,0,194.25,90Z"/><path class="cls-22" d="M194.25,90a35.64,35.64,0,1,0,45.69,21.3A35.64,35.64,0,0,0,194.25,90Z"/><path class="cls-23" d="M196.27,95.54a29.74,29.74,0,1,0,38.11,17.77A29.73,29.73,0,0,0,196.27,95.54Z"/><rect class="cls-2" x="258.89" y="130.58" width="1" height="58.04" transform="translate(-31.49 249.85) rotate(-48.84)"/><path class="cls-2" d="M277,178.71a4.3,4.3,0,1,1,4.29,4.29A4.29,4.29,0,0,1,277,178.71Z"/><path class="cls-2" d="M234.67,140.51a2.87,2.87,0,1,1,2.87,2.86A2.87,2.87,0,0,1,234.67,140.51Z"/><path class="cls-24" d="M212.39,135.7H198.27a.51.51,0,0,0-.51.51v1a.5.5,0,0,0,.51.5.5.5,0,0,0,.5-.5v-.51h13.62a.5.5,0,0,0,.5-.5A.5.5,0,0,0,212.39,135.7Z"/><path class="cls-24" d="M201.8,120.07a.5.5,0,0,0,.5.51h2a.5.5,0,0,0,.5-.51v-3a.5.5,0,0,0-.5-.51h-2a.5.5,0,0,0-.5.51v3Zm1-2.52h1v2h-1Z"/><path class="cls-24" d="M197.26,113.52h-6a.5.5,0,0,0-.5.5v10.09a.5.5,0,0,0,1,0v-9.58h5.55a.5.5,0,0,0,.5-.51A.5.5,0,0,0,197.26,113.52Z"/><path class="cls-24" d="M214.91,132.18a.5.5,0,0,0,.5.5h2a.5.5,0,0,0,.5-.5v-3a.5.5,0,0,0-.5-.5h-2a.5.5,0,0,0-.5.5Zm1-2.53h1v2h-1Z"/><path class="cls-24" d="M193.23,125.62c-2.5,0-2.52,6.49-2.52,6.56a2.53,2.53,0,0,0,2,2.47v2.57a.51.51,0,0,0,1,0v-2.57a2.54,2.54,0,0,0,2-2.47C195.75,132.11,195.72,125.62,193.23,125.62Zm0,8.07a1.52,1.52,0,0,1-1.52-1.51c0-2.52.68-5.55,1.52-5.55s1.51,3,1.51,5.55A1.52,1.52,0,0,1,193.23,133.69Z"/><path class="cls-24" d="M196.25,122.59h-2a.51.51,0,0,0-.5.51v1a.51.51,0,0,0,1,0v-.51h1v2.52a.5.5,0,0,0,.5.51.51.51,0,0,0,.51-.51v-3A.51.51,0,0,0,196.25,122.59Z"/><path class="cls-24" d="M215.41,120.58h2a.5.5,0,0,0,.5-.51v-3a.5.5,0,0,0-.5-.51h-2a.5.5,0,0,0-.5.51v3A.5.5,0,0,0,215.41,120.58Zm.51-3h1v2h-1Z"/><path class="cls-24" d="M196.25,116.54h-2a.51.51,0,0,0-.5.51v3a.51.51,0,0,0,.5.51h2a.51.51,0,0,0,.51-.51v-3A.51.51,0,0,0,196.25,116.54Zm-.5,3h-1v-2h1v2Z"/><path class="cls-24" d="M206.84,120.07a.51.51,0,0,0,.5.51h2a.51.51,0,0,0,.51-.51v-3a.51.51,0,0,0-.51-.51h-2a.51.51,0,0,0-.5.51v3Zm1-2.52h1v2h-1v-2Z"/><path class="cls-24" d="M220.45,113.52h-6a.5.5,0,0,0-.5.5.51.51,0,0,0,.5.51H220v20.26a1.43,1.43,0,0,0-.5-.09,1.1,1.1,0,0,0-.26,0,2,2,0,0,0-3.52,0,1.1,1.1,0,0,0-.26,0,1.51,1.51,0,1,0,0,3h4a1.52,1.52,0,0,0,1.51-1.51V114A.5.5,0,0,0,220.45,113.52Zm-1,23.19h-4a.5.5,0,0,1-.5-.5.5.5,0,0,1,.5-.51.49.49,0,0,1,.28.09.5.5,0,0,0,.46,0,.5.5,0,0,0,.3-.35,1,1,0,0,1,2,0,.5.5,0,0,0,.76.31.51.51,0,0,1,.78.42A.5.5,0,0,1,219.45,136.71Z"/><path class="cls-24" d="M207.34,114.53h2a.51.51,0,0,0,.51-.51v-3a.51.51,0,0,0-.51-.51h-2a.51.51,0,0,0-.5.51v3A.51.51,0,0,0,207.34,114.53Zm.51-3h1v2h-1v-2Z"/><path class="cls-24" d="M206.84,126.12a.51.51,0,0,0,.5.51h2a.51.51,0,0,0,.51-.51v-3a.51.51,0,0,0-.51-.51h-2a.51.51,0,0,0-.5.51v3Zm1-2.52h1v2h-1v-2Z"/><path class="cls-24" d="M202.3,114.53h2a.5.5,0,0,0,.5-.51v-3a.5.5,0,0,0-.5-.51h-2a.5.5,0,0,0-.5.51v3A.5.5,0,0,0,202.3,114.53Zm.51-3h1v2h-1Z"/><path class="cls-24" d="M205.47,131.82a.51.51,0,0,0-.14.36.5.5,0,0,0,.14.35.51.51,0,0,0,.72,0,.51.51,0,0,0,.15-.35.51.51,0,0,0-.15-.36A.53.53,0,0,0,205.47,131.82Z"/><path class="cls-24" d="M201.8,126.12a.5.5,0,0,0,.5.51h2a.5.5,0,0,0,.5-.51v-3a.5.5,0,0,0-.5-.51h-2a.5.5,0,0,0-.5.51v3Zm1-2.52h1v2h-1Z"/><path class="cls-24" d="M200.79,129.15a.5.5,0,0,0,.5.5h1.52v4.54a.5.5,0,1,0,1,0v-4.54h4v4.54a.5.5,0,0,0,.5.51.51.51,0,0,0,.51-.51v-4.54h1.51a.5.5,0,0,0,0-1h-9.08A.5.5,0,0,0,200.79,129.15Z"/><path class="cls-24" d="M214.91,126.12a.5.5,0,0,0,.5.51h2a.5.5,0,0,0,.5-.51v-3a.5.5,0,0,0-.5-.51h-2a.5.5,0,0,0-.5.51Zm1-2.52h1v2h-1Z"/><path class="cls-24" d="M212.39,107.47H199.28a.5.5,0,0,0-.51.5v26.22a.51.51,0,0,0,.51.51.5.5,0,0,0,.5-.51V108.48h12.1v25.71a.51.51,0,0,0,.51.51.5.5,0,0,0,.5-.51V108A.5.5,0,0,0,212.39,107.47Z"/><rect class="cls-2" x="32.17" y="357.87" width="135.29" height="0.75"/><text class="cls-4" transform="translate(48.46 352.1)"><tspan class="cls-29">O</tspan><tspan class="cls-6" x="9.47" y="0">V</tspan><tspan x="18.13" y="0">ER 30 </tspan><tspan class="cls-5" x="55.95" y="0">P</tspan><tspan class="cls-9" x="64.33" y="0">R</tspan><tspan class="cls-6" x="72.86" y="0">O</tspan><tspan x="82.43" y="0">J</tspan><tspan class="cls-30" x="88.85" y="0">E</tspan><tspan class="cls-31" x="96.58" y="0">C</tspan><tspan class="cls-7" x="105.02" y="0">T</tspan><tspan x="112.31" y="0">S</tspan></text><g id="Vector_Smart_Object" data-name="Vector Smart Object"><g class="cls-32"><g class="cls-33"><path class="cls-34" d="M91.77,368.37l0,0h0v0H91.7v0h0l.07,0m-1.6,5.89h0s0,0,0,0h0v0h0s0,0,0,.05h0m1.35-5.52a.17.17,0,0,1,.06.06h0a.25.25,0,0,1,0-.07l0-.07s0,0,0,0h-.22v0l.06.06Zm-2.54,0,.06,0s.06-.05.06-.07h0l0-.05h0a.1.1,0,0,1,0,0h0l0,0h0l0,0m1.44,5.2h0l0-.06.05-.06v0h0v0h0s-.1.08-.1.12h0Z"/><path class="cls-2" d="M88.67,374.18h7.89v-2.11a2.39,2.39,0,0,1,.13-.21h0l0,0v0l.09-.15h0l0-.07a1.63,1.63,0,0,0,.11-.23v0l0,0a.69.69,0,0,1,.05-.13l0-.06,0,0c0-.05,0-.11,0-.16h0v0l0-.06c0-.05,0-.09,0-.15v0s0-.05,0-.07,0-.05,0-.07l0-.12h0s0-.06,0-.08l0-.17c0-.1,0-.21,0-.31v-.05c0-.1,0-.2,0-.3a4.7,4.7,0,0,0-.8-2.61h0v-.53h-.41a4.72,4.72,0,0,0-7,0h-.43v.57h0a4.7,4.7,0,0,0,0,5.14v2.15ZM96.56,367s.21.35.23.39v0l.1.22,0,.09.07.18.09.28h0a2.22,2.22,0,0,1,.09.37.09.09,0,0,1,0,.05,3.06,3.06,0,0,1,0,.32l0,.19v0a4.72,4.72,0,0,1-.71,2.84v-1.76h0v-2h0V367Zm-7.82,7.15v-2h0A4.75,4.75,0,0,0,91.43,374s0,0,0,0,.06,0,.08,0h.25l.09,0H88.74Zm1.53-.77h.06v0s0,0,0,0h0l-.06-.05h.23s0,0,.07,0,0,0,0,0v0a1.18,1.18,0,0,0,.19-.39,2.89,2.89,0,0,1,.22-.58,2.39,2.39,0,0,1,.13-.21,2.83,2.83,0,0,0,.17-.25.41.41,0,0,1,0-.12s0-.06,0-.13.12-.19.12-.3V371a.37.37,0,0,1,0-.09c0-.06.08-.2.08-.22a2,2,0,0,1,.23-.53.54.54,0,0,0,.06-.16,1.07,1.07,0,0,1,.06-.32l0,0v.46h0v0l0,1s-.09.19-.12.26l-.09.18s-.09.17-.09.19v.06a.44.44,0,0,1,0,.1,1.42,1.42,0,0,0-.07.22.49.49,0,0,1-.07.19.61.61,0,0,1-.17.19s0,.1-.06.16a.54.54,0,0,1-.1.16,2,2,0,0,0-.21.2s0,.1-.08.14h0l0,.08-.07.07h0l0,0v0c0,.05,0,.19-.11.19s-.16-.08-.15-.1-.13-.07-.15-.07h0l-.08-.05,0,0s-.11,0-.11-.09v-.07l.06,0h0a0,0,0,0,0,0,0,.05.05,0,0,0,.06.06M92,369s-.05-.18-.05-.22a.11.11,0,0,0,0-.06.32.32,0,0,1,0-.09c0-.06-.08-.19-.08-.21a.64.64,0,0,0,0-.09.13.13,0,0,0,0-.05s.09,0,.09-.05a.78.78,0,0,0,0-.12h0a.11.11,0,0,1,0-.06V368s0,0,0,0,0,0,0,0,0,0,0,.05-.21-.08-.21-.15l0-.09v-.15s0,0,0,0H92c.11,0,.1.07.16.07h.53l0,0a.25.25,0,0,1,.08-.05H93l.11,0h0l0,0h0a.24.24,0,0,1,.15-.08h.06s.14,0,.14.08h0c0,.06-.05.1-.05.13a0,0,0,0,0,0,0s.08-.12.08-.15h0s0,0,0-.06h0l.06,0,.06,0a.18.18,0,0,1,.09,0l.09.05c-.11,0-.1,0-.15,0h-.09a1.09,1.09,0,0,1-.21.27h0s-.05,0-.07.06l0,0h0s-.08.14-.12.14h0l-.06,0a.12.12,0,0,0-.09,0s0,0,.08,0,0,0,.06,0h0s-.1.06-.11.06a2.64,2.64,0,0,1-.35-.1h0c0,.06.36.12.38.12a.39.39,0,0,0,.21-.06s.06,0,.06.08a.71.71,0,0,1-.09.35,1.07,1.07,0,0,1-.08.22s0,.07,0,.11a.07.07,0,0,1,0,.05l0,.18v.05c0,.1-.14.06-.14.11l0,0s.1,0,.11,0a3.73,3.73,0,0,1,.13.44.78.78,0,0,0,0,.09,1.62,1.62,0,0,1,0,.18h-.46s0-.17,0-.2h0s0,0,0,0a1.11,1.11,0,0,0,0,.17h-.1s-.08,0-.09,0h0l0-.13V370s0,0,0,0,0,0,0,0a.12.12,0,0,1,0,0,.11.11,0,0,1,0,.06.18.18,0,0,0,0,.1H92v0h0v-.8a.32.32,0,0,1,0-.1s0,0,0-.08a.24.24,0,0,0,0-.17Zm-.29-.9,0-.11h0s.15.09.16.1v0h0c0,.1,0,.11,0,.12l-.08-.08,0,0h0m.54-.51s0-.06.07-.09h0v0s0,.06,0,.06h0m0-.87v0l0,0s0,.08.06.08,0,0,0,0a.64.64,0,0,0,0-.07c0-.06.13-.08.14-.08h.3v0s0,0,0,0a.86.86,0,0,0,0,.15h-.19s0,0,0,0,0,0,0,0V367a.13.13,0,0,0,0,.05l0,0h0s0,0-.07,0-.07,0-.07.06l0,0,.08,0s0,0,0,0-.09,0-.09.07h0a.06.06,0,0,1,.07.06h.12l0,0c0,.05-.07.06-.1.06h-.1l0,0h0l.06,0h0v0h-.11v0h0l-.05,0s-.09-.07-.09-.12a.31.31,0,0,0,0-.08l0,0v-.16a.29.29,0,0,0,0-.09m0-.06a.3.3,0,0,1,0,.1s0,0,0,0h0s-.12-.09-.12-.11v0h0l0,0,0,0,0,0,0,0c0-.05-.06-.05-.06-.09s.06-.08.07-.1a.46.46,0,0,0,.1-.07l.09,0h.41l0,0c0,.06.07.12.13.12h0l0,0s0,0,0,.05v.05h-.1c0-.06,0-.05-.08-.07a.11.11,0,0,0,0,0s-.06-.05-.08-.05h0l-.08,0a.11.11,0,0,1-.07,0l0,0,0,0a0,0,0,0,0,0,0s0,0,0,0h0s0,0,0,0l0,0s0,0,0,0h0l.08-.07v0s-.17.08-.17.12,0,0,.06,0h.06a.24.24,0,0,1-.06.08l0,0h0l0,.05Zm-.14.31s0,0,.07,0v0s-.07,0-.07.1a.05.05,0,0,0,0,0,0,0,0,0,0,0,0,.1.1,0,0,0,0-.06h0l0,0s0,0,0,0,0,.07,0,.07h0l0,0a.56.56,0,0,1-.07-.13c0-.05.13-.07.14-.1s.1-.05.1-.05h0v0s-.14.07-.17.09l.07,0m0-.37-.06,0h0s0,.1,0,.1,0,0,0,.1a.19.19,0,0,0,.05.1h-.09a.07.07,0,0,0,0,.07.53.53,0,0,0,0,.11v0c.11.06.09.21.2.29l.06.06,0,0h0l-.18-.08c-.09,0-.18-.11-.28-.11h-.06c-.06,0-.07,0-.14,0a1.66,1.66,0,0,1-.29-.09l-.29-.06c-.07,0-.08-.09-.16-.13L90.6,367a1.27,1.27,0,0,0-.23-.12c-.13,0-.29,0-.4-.09s-.21-.08-.31-.14,0-.06,0-.08l0-.05-.13-.07-.17-.09h3.06l-.11.08h0a0,0,0,0,0,0,0v0c-.07,0,0,.11,0,.11Zm0,.2h0s0,0-.08.06,0,0,0,0h0l0,0s0,0,.06,0h0s.06,0,0,0h0Zm0,.37a.12.12,0,0,1,.07-.07,0,0,0,0,1,0,0s0,0,0,.06a.09.09,0,0,0,0,.06l0,0h0l0,0s0,0,0-.06h0m0,0h0l0-.05v0s0,0,0,0Zm.11.25s0,0,0,0h0l0,0h0v0Zm.56,0c0-.05.08-.06.12-.09s0,.09,0,.15v.08s-.06,0-.09.06h0l0-.05c0-.07.06-.05.06-.09a.11.11,0,0,1,0-.06m0-.46v-.07h0l.06,0s.06,0,.09-.07h0s0,0,0,.06,0,.12-.1.12h0a.36.36,0,0,1,0,.09s0,.05-.07.05a.22.22,0,0,1-.1-.06h0a.14.14,0,0,0,0-.06.19.19,0,0,0,0-.07m.15.2s0-.09,0-.1a.25.25,0,0,1,0,.07.45.45,0,0,0,0,.08h0v-.05Zm0,.39,0,0,0,0h-.09l.06-.06m0-.84s0,0,.06,0h0s.11,0,.11.06v0h0s0-.05-.06-.05h-.13Zm0,.78v0s.12.11.15.11h.07s0,.05,0,.05h0l-.14-.12m.2-.56s0,0,0,0h0v0h-.05Zm.07-.07,0,0h0Zm0-.09s0,0,0,.05h0a.09.09,0,0,1,0-.06Zm.35.58.15,0a.55.55,0,0,0-.14.19l-.27,0h-.08l0-.05a.66.66,0,0,1,.39-.15Zm.09,0h-.09a1.16,1.16,0,0,0-.36.1h0v0s0,0,0-.06v-.08c0-.07.07-.15.07-.19V367s.09-.19.09-.26,0,0,0,0h-.06a.14.14,0,0,1,0-.06s0-.06,0-.06l0,0v0s0,0,0,0,0-.06,0-.09-.06,0-.09-.06,0-.05-.09-.07H96a.91.91,0,0,0-.38.17c-.07,0,0,.17-.16.2s-.27.1-.42.12h-.09a1.17,1.17,0,0,0-.2.06,1.42,1.42,0,0,0-.25.12s-.07.11-.14.13l-.15,0-.19,0a1.57,1.57,0,0,1-.26.12l-.1,0m-.67-.85v0h0s0,0,0,0h0s0,0,0,0Zm-.67.5h0v0l0,0,0,0s0,0,0,0m.35.6a0,0,0,0,1,0,0s0-.07,0-.08-.12-.09-.12-.15,0,0,0,0,.06.07.1.07l.06,0h0s0,.05,0,.08,0,.06,0,.08m-.24,0v-.1s.11.08.11.14v0h-.13a.45.45,0,0,0,0-.08m2.1.39c0,.05-.05.06-.09.06h-.19s.1,0,.1-.06a.07.07,0,0,0,0-.05h0l0,0s0,0-.08,0H94a.34.34,0,0,0-.2.08l0,0h.13l0,0a.55.55,0,0,1,.18,0h0s-.22.06-.31.06h-.08a1,1,0,0,1-.27,0v0l.17-.19h.13l.19-.09h.11a.65.65,0,0,1,.3.05h0a.12.12,0,0,0,.09,0h0l0,.09v.09Zm-1.3.32,0,0v0h0s0,0,0,0v0M95,373.38h0l0,0,0,0s0,0,0,0m-.06.1h0s0,0,0,0,0,0,0,0H95s0,0-.07.05m.09-.16h0l0,0s0,0,0,0v.05h0s0,.06-.06.06l0,0a.15.15,0,0,1-.1,0h0v.12c-.07-.06,0-.08,0-.15s-.05-.12-.09-.25V373a.38.38,0,0,0-.06-.13c-.13-.14-.13-.34-.29-.45s-.07-.09-.1-.14a.2.2,0,0,1,0-.08,4.29,4.29,0,0,0-.16-.43l0,0h0l0,0a1.29,1.29,0,0,1-.17-.16.26.26,0,0,1,0-.09l-.08-.08a1.5,1.5,0,0,1-.11-.13.61.61,0,0,1-.09-.26c0-.06,0-.17,0-.2a3.15,3.15,0,0,0,0-.48v-.16h0v-.1s0-.11,0-.12l.15.22h0a1.88,1.88,0,0,1,.26.72,1.17,1.17,0,0,0,0,.27,1.27,1.27,0,0,0,.11.13c.11.11.19.26.3.36a1.21,1.21,0,0,1,.34.56,2,2,0,0,1,.07.26,1.16,1.16,0,0,0,0,.18.58.58,0,0,1,0,.18.88.88,0,0,0,.14.36s.14.05.14.11Zm-.16.18s-.06.06-.08.06a0,0,0,0,1,0,0s.07-.06.08-.06,0,0,0,0m-2.2-2.65v-.2l0,0v.22l0,.22c0,.05,0,.07,0,.11a5.86,5.86,0,0,0,0,.75.5.5,0,0,1,0,.16v0h-.11l-.26,0h0c-.08,0-.07-.41-.07-.41a3.92,3.92,0,0,1-.15-.45c0-.07.1-.14.14-.2l.07-.08a.91.91,0,0,0,.21-.43h.11a.45.45,0,0,0,.13,0,.08.08,0,0,0,0-.07c.08.1.16.19.23.29s.16.14.23.22.09.1.09.14-.12.5-.12.53.07.3.09.37,0,.11,0,.12h-.35a.24.24,0,0,1,0-.09,1.84,1.84,0,0,1-.12-.46v-.33a1.64,1.64,0,0,0-.14-.39m0-.47h0v-.14h0a.59.59,0,0,0,.06.14.15.15,0,0,1,0,.06s0,.06,0,.06h-.13s0-.06,0-.07l0-.14a.43.43,0,0,1,0-.07h0v0s0,.06,0,.09,0,0,0,0m-.1-.14s0,0,0,.05,0,.12,0,.15,0,0,0,.05h0v0a1.81,1.81,0,0,1-.14.33,1.26,1.26,0,0,1-.26.32h0v-.94h.5v0Zm.78.75h0c-.1-.11-.23-.22-.33-.34s-.13-.16-.15-.2a1.36,1.36,0,0,1-.11-.2s.08,0,.11,0h.5a2.75,2.75,0,0,1,0,.76ZM92,371.3c0,.07.11.36.12.39a2.23,2.23,0,0,0,.09.53l0,0a2.86,2.86,0,0,1,0,.59V373s0,.18,0,.22a1,1,0,0,1-.12.48s-.07,0-.1.06l-.15.08-.19,0a.42.42,0,0,1-.12,0H91.5l0,0a4.72,4.72,0,0,1-.72-.25h0c.12-.09.08-.25.14-.38a2.43,2.43,0,0,1,.14-.2s.06,0,.08,0a1.05,1.05,0,0,0,.26-.44.61.61,0,0,0,.25-.38v-.08a1.45,1.45,0,0,1,.11-.26.37.37,0,0,1,0-.15c.06-.06.06-.12.1-.19a.93.93,0,0,1,.12-.27m.52,2.75a.14.14,0,0,1-.08.05h-.14l-.06,0h-.06a4.28,4.28,0,0,1-.59-.1,2.09,2.09,0,0,0,.37-.13c.08,0,.21-.09.24-.2a1.17,1.17,0,0,0,.06-.2,1.58,1.58,0,0,0,0-.28s0-.14,0-.15c0-.29,0-.73,0-.73s0,0,0-.06h0s0,0,0,0l.06,0h0a.06.06,0,0,0,0,.06h0s0-.07.07-.08h.21s0,0,0,.06a3.73,3.73,0,0,1,.06.52c0,.16-.09.2-.09.27s0,.11,0,.15a.78.78,0,0,1,0,.16.52.52,0,0,0,0,.11.55.55,0,0,1-.06.18.2.2,0,0,0,0,.08s0,0,0,0-.1.06-.1.13h0s0-.06.06-.07.06.1.06.14,0,.11,0,.11m0-.31a.7.7,0,0,1,0-.14s.05-.07.05-.08v0a.56.56,0,0,0,0-.07.6.6,0,0,0,0-.19,1.22,1.22,0,0,0,0-.2.67.67,0,0,0,.11-.33v-.16l-.07-.3,0-.1a.11.11,0,0,0,0-.08l0-.14a5.92,5.92,0,0,1,0-.72s0-.05,0-.08a.44.44,0,0,1,0,.31,1.45,1.45,0,0,0,.14.64v.08a.22.22,0,0,1,0,.09l0,.16a.74.74,0,0,0-.06.29v.22s0,0,0,.09v.13a1.6,1.6,0,0,1,0,.32c0,.07-.09.12-.11.19s0,.12,0,.19,0,.08-.07.08l0,0v-.05s0-.05,0-.07m.07.34h0s0,0,0,0a.25.25,0,0,1,.09,0h-.07m.16,0h0s-.05,0-.05,0,0,0,0,0h0s0,0,0,0,0,0,0,0m.09,0,0,0v0l0,0,0,0s0,0,0,0Zm0-.1h-.06l0,0h0s0,0-.08.05,0-.05-.07-.05h0v0l0,0h0l0,0a.57.57,0,0,0,0-.07.53.53,0,0,1,0-.15c.2-.23.09-.31.12-.36v-.15a.64.64,0,0,0,0-.28h0v-.3a1.62,1.62,0,0,0,.06-.22l0-.08v0s0-.07,0-.07,0,0,0,0l0,0h.22s0,0,0,.07,0,.19,0,.19a2.05,2.05,0,0,1-.06.65,1.22,1.22,0,0,1-.09.27c0,.08-.15.23-.15.34l0,.07s0,0,0,0h0c0,.09.1,0,.1.1s0,.07,0,.07H93l0,.06s0-.06,0-.07M93,374l0,0v0Zm.1,0v-.05s0-.14,0-.16,0,0,0-.06a0,0,0,0,0,0,0v-.06a1.44,1.44,0,0,0,.18-.35,2.43,2.43,0,0,0,.11-1,2.88,2.88,0,0,0-.09-.43v0a.53.53,0,0,0,0-.12s.07-.31.1-.43a.51.51,0,0,0,.09.16s.09.08.11.12.18.3.32.34a3.7,3.7,0,0,0,.13.4v0a.21.21,0,0,0,.06.08.64.64,0,0,0,.08.14.58.58,0,0,1,.12.1s0,0,0,.05a1.19,1.19,0,0,0,.08.16c0,.08.15.2.15.31v.07a2,2,0,0,1,.11.28v.08a.18.18,0,0,0,.06.1h0a4.71,4.71,0,0,1-1.77.48c.06,0,.16-.06.16-.12m3.39.14H93.38a4.73,4.73,0,0,0,2.72-1.45h0c.09-.11.19-.21.27-.32l0,0h0v0l0,0,.07-.09v1.94ZM95,373.32l0,0h0v0h0s0,0,0,0m1.46-1.27a4.62,4.62,0,0,1-.89,1l-.44.32,0,0a.1.1,0,0,0-.08-.13H95a.56.56,0,0,1-.17-.24s0-.06,0-.11v-.05s-.1-.38-.18-.62a1.89,1.89,0,0,0-.06-.18,1,1,0,0,0-.32-.44,3,3,0,0,0-.22-.28.63.63,0,0,1-.18-.34,2.79,2.79,0,0,0-.1-.39.89.89,0,0,0-.09-.26l-.09-.15h0a1.23,1.23,0,0,1-.2-.43l0-.12s0-.07,0-.1-.05-.06-.05-.1l0-.06a.08.08,0,0,0,0-.05.32.32,0,0,0,0-.09.41.41,0,0,0,0-.11s0-.07,0-.1.13-.35.16-.46a3.15,3.15,0,0,0,0-.42h0v0s0,0,.09,0l.21,0h.15c.13,0,.25-.08.38-.08h.24s0,0,0,0,.08,0,.1,0a6.4,6.4,0,0,0,.88-.06.78.78,0,0,0,.16-.06h0l.06,0s0,.06.12.06.16-.06.27-.06h.24a.06.06,0,0,0,.05-.07s.09,0,.09-.06-.06-.06-.1-.07h0l.06,0v4.32Zm-.36-4.29h.2c.15,0,.09.07.09.07h-.22a1.55,1.55,0,0,0-.15,0,1.33,1.33,0,0,0-.24.08h0s.22-.06.23-.06l.07,0h.18s0,0,0,0,0,0,0,0H96.1c-.06,0-.18.06-.26.06a.07.07,0,0,1-.08,0h-.15l-.08,0a2.88,2.88,0,0,1-.94.09l0-.06s0,0,0-.05v-.05a.45.45,0,0,0,0-.08v-.06s.06,0,.07,0h1.09l.07,0a.16.16,0,0,1,.09,0h.46s.1,0,.11,0h0l0,0h-.36l0,0s0,0,.09,0Zm.36-1.39v.37c-.09-.13-.19-.25-.29-.37Zm-.39,0,.06.05a1.47,1.47,0,0,0,.1.13l.15.2.08.11v.76l-.1,0h-.5a1.38,1.38,0,0,0-.16.06l-.22,0H95.4l-.38,0h-.37l-.07,0a.45.45,0,0,1-.13.06h0a1.13,1.13,0,0,0-.41-.05h0a.44.44,0,0,1,.2-.08c.08,0,.15-.09.23-.09s.21-.07.3-.09a.88.88,0,0,0,.27-.1,2,2,0,0,1,.29-.18l.25-.1.11,0s.32-.2.42-.27.08,0,.08-.07,0,0,0,0h0v0s.07,0,.07-.07,0,0,0,0h0s0,0,0-.06,0,0,0,0l0,0Zm0,0c0,.06-.16.06-.27.14h0l.21-.07v0s-.17.08-.18.1,0,0,0,0a.74.74,0,0,1,.18-.09h0s0,0,0,0a2.77,2.77,0,0,0-.24.15l0,0s.18-.09.25-.1h0s0,0,0,0a2.65,2.65,0,0,0-.4.24,1.67,1.67,0,0,1-.2.08l-.3.13a1.26,1.26,0,0,1-.47.25.49.49,0,0,0-.17.06l-.23.05a.77.77,0,0,1-.29.1l-.18.1h0l0,0,0,0-.11,0s-.09-.05-.14-.05a.62.62,0,0,1,.44-.32h.06a1.72,1.72,0,0,0,.26-.05.13.13,0,0,0,.07,0l0,0s0,0,0,0,.19-.18.2-.18.22-.1.31-.1H95l.19-.05a.8.8,0,0,0,.26-.09l.09,0s0-.09.06-.12.06-.07.08-.09a2.78,2.78,0,0,1,.36-.13h0ZM89.53,366l0,0a4.55,4.55,0,0,1,.81-.57h0a4.64,4.64,0,0,1,5.35.61,3.83,3.83,0,0,1,.29.28l0,0H89.21a3.22,3.22,0,0,1,.32-.32Zm-.45.46,0,0h0l.25.15h0c0-.06-.18-.13-.2-.15s0,0,0,0a1.94,1.94,0,0,1,.24.15l.07,0c.07,0,.12.15.19.18l.1,0a2.83,2.83,0,0,0,.28.15h.08l.21,0a.54.54,0,0,1,.13.07c.07,0,.18.05.23.1a.44.44,0,0,0,.32.15l.17.05.18.06h.1l.11,0a.22.22,0,0,1,.12,0l.23.09c.05,0,.1.07.15.07s.23-.12.28-.17a.44.44,0,0,1-.14.23h0l0,0c-.07,0,0-.06-.07-.06H92a1.61,1.61,0,0,0-.26,0h-.18l-.11,0-.28.08h-.09c-.07-.09-.15-.1-.25-.16l-.1,0h-.12a1.42,1.42,0,0,1-.27-.09.85.85,0,0,1-.22-.09c-.09-.06-.16-.14-.25-.2h-.1l-.2-.09s0-.05-.08-.05a.44.44,0,0,1-.17-.07c0-.08-.29-.12-.29-.17s0,0,0,0h0l.24.09s0,0,0-.06l-.29-.08s0,0,0-.05h0l.06,0,.3.11s0,0,0,0l-.41-.15,0,0,.26.11s0,0,0,0l-.23-.12Zm2,1.51,0-.06V368h-.11a.05.05,0,0,0,0,0H91l0,.05h-.17l-.17,0s0-.09,0-.13,0-.07,0-.13a1,1,0,0,1,.24,0h.07c.1,0,.59.11.59.27v.07h-.58V368h0a0,0,0,0,0,0,0m-1.63-.07v-.17l.46,0h0a.87.87,0,0,1,.28-.07h.05s0,0,.14,0h.08a.37.37,0,0,1,.19.09V368c0,.09-.12.1-.17.11h-.28c-.06,0-.32-.09-.37-.09l-.43,0v-.05h0l0,0h0l0,0s0,0-.07,0m1.24-.15a.88.88,0,0,0-.2-.07h-.14l-.06,0a.5.5,0,0,0-.21,0h0a.56.56,0,0,1-.15,0s-.38,0-.51,0h0c-.07,0-.15-.11-.23-.11h-.26s-.11,0-.15,0v-.7l.25-.33h0a.06.06,0,0,0,0,.07s0,.07.05.08a1.36,1.36,0,0,0,.21.1.15.15,0,0,1,0,.06l.09.06c.06,0,.14,0,.2.06a1.14,1.14,0,0,0,.26.12h0a2.21,2.21,0,0,0,.29.22c.07,0,.16.05.23.09a2.17,2.17,0,0,0,.42.11s.06,0,.09.06a.42.42,0,0,1,.13.07H91l-.26.06Zm1,0a.17.17,0,0,1,0,.1c-.15-.09-.32-.11-.32-.15l.06,0a1,1,0,0,1,.25-.07.07.07,0,0,1,0,0v.11m-2.9-1v-.41h.32a3.9,3.9,0,0,0-.31.4Zm0,1.28h0v-.37h.36s.06,0,.06,0h0l-.1,0h-.13l-.13,0s0,0,0,0h.37a.3.3,0,0,1,.13.06s.06.05.07.09,0,.06,0,.06l0,0s0,.06-.08.06l-.14,0v0h.07l0,0h-.42v.08s0,0,.05,0,0,0,0,.07.07.07.1.07h.24l.18,0h.16l.42,0c.05,0,.33.08.37.09h.3l.19-.06h.05l.85,0,.07,0a.46.46,0,0,1,.15.34s.1.24.1.28.1.26.07.36a.78.78,0,0,0,0,.19v.19a1.86,1.86,0,0,0-.14.54.58.58,0,0,1,0,.14h0l-.14.28a3.7,3.7,0,0,0-.18.56,1,1,0,0,0,0,.17,1.38,1.38,0,0,1-.11.27,1.51,1.51,0,0,1-.1.38c0,.07-.13.14-.16.2a.25.25,0,0,1,0,.07l0,0,0,.07c-.13.27-.2.62-.34.91,0,0-.08.06-.11.08h-.11l-.21,0a.31.31,0,0,0-.19.11,4.5,4.5,0,0,1-.5-.39,4.92,4.92,0,0,1-.68-.76l-.09-.14Zm.22-.23h-.17s0-.05,0-.05h.24s0,0,0,.05l0,.06h.05s0-.05,0-.05l.12.05h.06s.07,0,.07.05,0,0,0,.05h-.11l-.12,0h-.29s0,0,0,0,.09-.05.11-.05H89s0,0,0,0-.06,0-.06,0m-.88,2.58a.13.13,0,0,1,0-.06,4.46,4.46,0,0,1-.09-.81v-.23c0-.05,0-.11,0-.16s0-.12,0-.18a.77.77,0,0,0,0-.15c0-.09,0-.18,0-.27l0-.14a.75.75,0,0,1,0-.16l0-.12a4.91,4.91,0,0,1,.5-1.12v4.89a4.69,4.69,0,0,1-.59-1.49"/><path class="cls-34" d="M90.71,381.23h-.19v-.56H90v.56H89.8v-1.29H90v.56h.53v-.56h.19Zm1.53-.64a.67.67,0,0,1-1.34,0,.67.67,0,0,1,.67-.67h0a.66.66,0,0,1,.67.66Zm-.19,0a.48.48,0,0,0-.48-.5.47.47,0,0,0-.44.29.78.78,0,0,0,0,.21.65.65,0,0,0,0,.2.45.45,0,0,0,.44.29.46.46,0,0,0,.45-.32.47.47,0,0,0,0-.17m1-.48h-.25v1.12h-.19v-1.12h-.24v-.17H93Zm.82,1.12h-.69v-1.29h.69v.17h-.51v.38h.51v.18h-.51v.39h.51Zm.87,0h-.64v-1.29h.19v1.12h.45Zm.82-.37a.37.37,0,0,1-.39.39.38.38,0,0,1-.4-.4h.19a.21.21,0,0,0,.21.23.19.19,0,0,0,.2-.22c0-.13-.1-.16-.2-.21s-.36-.13-.36-.38a.37.37,0,0,1,.73,0H95.3a.17.17,0,0,0-.18-.19.18.18,0,0,0-.18.18c0,.27.57.11.57.59"/><path class="cls-34" d="M86.56,378.43H85.47V376h.24v2.18h.85Zm1.81-1a.91.91,0,0,0-.24-.46.72.72,0,0,0-.47-.15.65.65,0,0,0-.45.16.69.69,0,0,0-.22.45Zm.26.2H87a.68.68,0,0,0,.22.48.63.63,0,0,0,.48.19.67.67,0,0,0,.37-.11.62.62,0,0,0,.25-.3h.27a1,1,0,0,1-.35.47.9.9,0,0,1-.53.16.91.91,0,0,1-.68-.28,1,1,0,0,1-.27-.68.92.92,0,0,1,1-1,.88.88,0,0,1,.67.28,1.06,1.06,0,0,1,.26.74Zm.41-.07a.73.73,0,0,0,.2.52.68.68,0,0,0,1,0,.74.74,0,0,0,.2-.53.72.72,0,0,0-.21-.53.66.66,0,0,0-.51-.21.67.67,0,0,0-.48.22.76.76,0,0,0-.2.53m-.24,0a1,1,0,0,1,.27-.69.93.93,0,0,1,1.33,0,.91.91,0,0,1,.28.67,1,1,0,0,1-.27.69.93.93,0,0,1-1.34,0,1,1,0,0,1-.27-.68m2.16-.91h.22v.2a.83.83,0,0,1,.25-.18.88.88,0,0,1,.33-.06.86.86,0,0,1,.36.08.72.72,0,0,1,.25.21.69.69,0,0,1,.09.23,3.53,3.53,0,0,1,0,.39v.95h-.23v-1a.74.74,0,0,0-.12-.47.49.49,0,0,0-.4-.15.64.64,0,0,0-.28.07.47.47,0,0,0-.19.18.49.49,0,0,0-.06.17,2.27,2.27,0,0,0,0,.33v.89H91Zm3.44.9a.69.69,0,0,0-.21-.51.67.67,0,0,0-.48-.22.7.7,0,0,0-.5.22.73.73,0,0,0-.21.54.69.69,0,0,0,.21.51.67.67,0,0,0,.5.21.64.64,0,0,0,.48-.22.76.76,0,0,0,.21-.53Zm0,.63a.73.73,0,0,1-.3.25.9.9,0,0,1-.4.09.88.88,0,0,1-.67-.28.92.92,0,0,1-.27-.67.92.92,0,0,1,1-1,.92.92,0,0,1,.38.08.81.81,0,0,1,.3.25v-.29h.23v1.82H94.4Zm.83.29H95v-1.82h.22v.21a.64.64,0,0,1,.19-.18.53.53,0,0,1,.24-.06v.25a.43.43,0,0,0-.31.14.5.5,0,0,0-.1.36v1.1Zm2.16-.89a.72.72,0,0,0-.21-.53.65.65,0,0,0-.48-.23.67.67,0,0,0-.5.21.69.69,0,0,0-.2.52.72.72,0,0,0,.2.53.66.66,0,0,0,.5.22.64.64,0,0,0,.48-.22.69.69,0,0,0,.21-.5m0-.64V376h.24v2.41h-.24v-.28a.7.7,0,0,1-.3.24.89.89,0,0,1-.39.09.93.93,0,0,1-.67-.28.94.94,0,0,1-.27-.68.93.93,0,0,1,.27-.68.9.9,0,0,1,.67-.27,1,1,0,0,1,.39.08.81.81,0,0,1,.3.25m.75.62a.7.7,0,0,0,.21.52.67.67,0,0,0,1,0,.74.74,0,0,0,.2-.53.76.76,0,0,0-.2-.53.7.7,0,0,0-.52-.21.67.67,0,0,0-.48.22.76.76,0,0,0-.2.53m-.24,0a1,1,0,0,1,.27-.69.9.9,0,0,1,.66-.28.89.89,0,0,1,.67.28.91.91,0,0,1,.28.67,1,1,0,0,1-.27.69.88.88,0,0,1-.66.29.91.91,0,0,1-.68-.28,1,1,0,0,1-.27-.68"/></g></g></g><g id="Vector_Smart_Object-2" data-name="Vector Smart Object"><g class="cls-35"><g class="cls-35"><path class="cls-2" d="M137.92,367.43a4.5,4.5,0,1,1-4.5,4.5,4.5,4.5,0,0,1,4.5-4.5h0m0-1.44a5.95,5.95,0,1,0,5.94,5.94,5.94,5.94,0,0,0-5.94-5.94"/><polygon class="cls-2" points="139.97 370.39 139.97 368.94 137.12 368.94 135.66 370.4 135.66 371.85 137.11 371.85 137.11 370.39 139.97 370.39"/><polygon class="cls-2" points="135.66 374.75 137.12 374.75 137.12 373.3 139.97 373.3 139.97 371.85 137.12 371.85 135.66 373.3 135.66 374.75"/><polygon class="cls-2" points="149.29 374.15 149.29 369.05 152.39 369.05 152.39 369.7 149.99 369.7 149.99 371.34 152.17 371.34 152.17 372 149.99 372 149.99 374.15 149.29 374.15 149.29 374.15"/><polygon class="cls-2" points="153.37 375.6 154.23 373.77 152.74 370.69 153.52 370.69 154.59 373.08 155.64 370.69 156.36 370.69 154.11 375.6 153.37 375.6"/><path class="cls-2" d="M157,374.15v-5.21h.67v2.24a1.27,1.27,0,0,1,1.15-.59,1.62,1.62,0,0,1,1.59,1.82,1.65,1.65,0,0,1-1.61,1.84,1.24,1.24,0,0,1-1.12-.6v.5Zm1.69-3c-.6,0-1,.46-1,1.22s.43,1.23,1,1.23,1-.49,1-1.23-.39-1.22-1-1.22"/><path class="cls-2" d="M164.43,373.17a1.58,1.58,0,0,1-1.56,1.09,1.85,1.85,0,0,1-.08-3.68,1.62,1.62,0,0,1,1.66,1.82.74.74,0,0,1,0,.21h-2.61a1,1,0,0,0,1,1.05,1,1,0,0,0,1-.7Zm-.68-1.1a.88.88,0,0,0-.95-.89.92.92,0,0,0-1,.89Z"/><path class="cls-2" d="M167.23,371.37l-.29,0c-.57,0-.95.3-.95,1.06v1.74h-.68v-3.46H166v.6a1.08,1.08,0,0,1,1-.65.55.55,0,0,1,.22,0Z"/></g></g></g><g id="Vector_Smart_Object-3" data-name="Vector Smart Object"><g class="cls-36"><rect class="cls-2" x="50.34" y="385.69" width="1.81" height="7.34"/><g class="cls-36"><path class="cls-2" d="M47,388.76a.88.88,0,0,1,.86.94H46.09a.9.9,0,0,1,.92-.94m1.89,2.79a3.87,3.87,0,0,1-1.29.23c-.78,0-1.39-.26-1.49-.88h3.33a2.62,2.62,0,0,0,.07-.7A2.4,2.4,0,0,0,47,387.5a2.82,2.82,0,0,0,.28,5.64,4.48,4.48,0,0,0,1.85-.35l-.27-1.24"/><path class="cls-2" d="M72.92,388.76a.88.88,0,0,1,.86.94H72a.91.91,0,0,1,.92-.94m1.9,2.79a3.87,3.87,0,0,1-1.29.23c-.78,0-1.39-.26-1.49-.88h3.33a3.16,3.16,0,0,0,.07-.7A2.4,2.4,0,0,0,73,387.5a2.82,2.82,0,0,0,.29,5.64,4.48,4.48,0,0,0,1.85-.35l-.27-1.24"/><path class="cls-2" d="M55.78,391.8c-.58,0-1-.58-1-1.47,0-.72.26-1.48,1-1.48s.94.79.94,1.47c0,.9-.37,1.48-.95,1.48m0,1.34a2.7,2.7,0,0,0,2.83-2.87,2.61,2.61,0,0,0-2.74-2.76A2.7,2.7,0,0,0,53,390.36a2.65,2.65,0,0,0,2.79,2.78"/><rect class="cls-2" x="59.39" y="387.62" width="1.81" height="5.41"/><path class="cls-2" d="M66.82,386.14v1.48h-.7V389h.69v2.24a1.7,1.7,0,0,0,1.84,1.94,5,5,0,0,0,1.28-.18v-1.4a3,3,0,0,1-.63.09c-.25,0-.7-.07-.7-.76V389h1.17v-1.34H68.6v-1.68l-1.78.2"/><path class="cls-2" d="M62.63,386.14v1.48h-.7V389h.69v2.24a1.7,1.7,0,0,0,1.84,1.94,5,5,0,0,0,1.28-.18v-1.4a3,3,0,0,1-.63.09c-.25,0-.7-.07-.7-.76V389h1.17v-1.34H64.41v-1.68l-1.78.2"/><rect class="cls-2" x="59.39" y="385.7" width="1.81" height="1.41"/><path class="cls-2" d="M37.36,393H39.5c3.13,0,4.32-1.87,4.32-3.65,0-2.43-1.55-3.82-4.37-3.82-.77,0-1.62,0-2.09.09Zm2.41-1.46c-.24,0-.49,0-.62,0s0-4.51,0-4.51a5,5,0,0,1,.64,0,2.1,2.1,0,0,1,2.15,2.29,2.06,2.06,0,0,1-2.17,2.24"/><path class="cls-2" d="M76,392.15a1,1,0,1,1,1,1,1,1,0,0,1-1-1"/></g></g></g><g id="Inteligentny_obiekt_wektorowy" data-name="Inteligentny obiekt wektorowy"><g class="cls-37"><g class="cls-38"><path class="cls-2" d="M114.59,384.7a6,6,0,1,1-5.22,6,6,6,0,0,1,2-4.45,6,6,0,0,1,3.26-1.51"/><path class="cls-2" d="M88.54,389a1.61,1.61,0,0,0-1.63-.48,1.75,1.75,0,0,0-1,.62c0-.9,0-1.8,0-2.7-.3,0-.59,0-.88,0a2.41,2.41,0,0,1-.6,0c0,.33,0,.66,0,1v5.94H86v-2.9a.81.81,0,0,1,.27-.58.75.75,0,0,1,1.06.05,1.36,1.36,0,0,1,.21.9v2.53H89v-2.8a2.49,2.49,0,0,0-.46-1.55"/><path class="cls-39" d="M114.38,391a2.38,2.38,0,0,0,.55-1.28,1.69,1.69,0,0,0-.5-1.37,2.15,2.15,0,0,0-1.51-.45,2.81,2.81,0,0,0-1.63.56c.1.3.24.59.34.89a3.13,3.13,0,0,1,.68-.35,1.29,1.29,0,0,1,1,0,.76.76,0,0,1,.32.78,2.05,2.05,0,0,1-.58,1,21.21,21.21,0,0,1-1.61,1.53,1.36,1.36,0,0,0-.24.24c0,.25,0,.5,0,.75H115v-1.05h-2A9.45,9.45,0,0,0,114.38,391Z"/><path class="cls-39" d="M119.6,391.14H119c0-1.05,0-2.1,0-3.15h-1.56l-2,3.19a.44.44,0,0,0,0,.28c0,.21,0,.42,0,.63h2.36c0,.43,0,.86,0,1.28.4,0,.81,0,1.21,0v-1.28h.63C119.61,391.77,119.6,391.45,119.6,391.14Zm-1.83,0h-1.2c.24-.39.48-.78.71-1.17s.34-.66.5-1c0,.11,0,.22,0,.33C117.75,389.91,117.78,390.53,117.77,391.14Z"/><path class="cls-2" d="M93.86,389a2.75,2.75,0,0,0-2.07-.42,2.36,2.36,0,0,0-1.35.7,2.48,2.48,0,0,0-.65,1.8,2.37,2.37,0,0,0,.86,1.93,2.74,2.74,0,0,0,2.1.48,2.35,2.35,0,0,0,1.57-.94,2.78,2.78,0,0,0,.43-1.95,2.3,2.3,0,0,0-.89-1.6M93,392a.8.8,0,0,1-.74.39.88.88,0,0,1-.74-.54,2.37,2.37,0,0,1-.11-1.44,1.09,1.09,0,0,1,.63-.82.8.8,0,0,1,.82.17,1.6,1.6,0,0,1,.39,1A2,2,0,0,1,93,392"/><path class="cls-2" d="M102.75,390a1.89,1.89,0,0,0-.61-1.15,1.64,1.64,0,0,0-1.47-.24,1.82,1.82,0,0,0-1,.74,1.65,1.65,0,0,0-.4-.51,1.68,1.68,0,0,0-2,.07c-.14.1-.23.27-.36.38,0-.21,0-.42,0-.63-.43,0-.85,0-1.27,0,.07,1.59,0,3.18,0,4.77H97c0-.86,0-1.71,0-2.57a1.44,1.44,0,0,1,.08-.62.79.79,0,0,1,.52-.47.62.62,0,0,1,.62.19,1.12,1.12,0,0,1,.21.71v2.76h1.46v-2.61a2.32,2.32,0,0,1,0-.53.77.77,0,0,1,.53-.52.62.62,0,0,1,.64.21,1.34,1.34,0,0,1,.22.78v2.67h1.45v-2.43a5.47,5.47,0,0,0,0-1"/><path class="cls-2" d="M106.61,388.56a2.44,2.44,0,0,0-2.15.46,2.61,2.61,0,0,0-.87,1.83,2.58,2.58,0,0,0,.51,1.8,2.39,2.39,0,0,0,1.66.8,4.89,4.89,0,0,0,2.11-.28c-.06-.34-.13-.68-.2-1a4,4,0,0,1-1.53.19,1.61,1.61,0,0,1-.77-.26.89.89,0,0,1-.36-.63h3.08a3.14,3.14,0,0,0-.33-2,1.84,1.84,0,0,0-1.15-.85M105,390.43a1.24,1.24,0,0,1,.36-.74.84.84,0,0,1,1.1,0,1.08,1.08,0,0,1,.29.75H105"/></g></g></g><g id="Vector_Smart_Object-4" data-name="Vector Smart Object"><g class="cls-40"><path class="cls-2" d="M136.82,386.26a1,1,0,0,0-1.34,0l-1.19,1.19-2-2a.94.94,0,0,0-1.34,0h0l-2.68,2.69a.94.94,0,0,0,0,1.34h0l3.36,3.37,2.69-2.69.52.52-3.21,3.21L127.72,390a1,1,0,0,0-1.39,1.31l0,0,4.55,4.55a1,1,0,0,0,1.35,0h0l4.55-4.55a1,1,0,0,0,0-1.35l-1.19-1.19,1.19-1.19a1,1,0,0,0,0-1.35h0m-5.22,3.88-1.35-1.34,1.35-1.34,1.34,1.34Z"/><path class="cls-2" d="M143.9,391.24h2.4a1.84,1.84,0,0,1-1.92,1.9c-1.31,0-2.16-.94-2.16-2.48s.78-2.47,2-2.47a1.77,1.77,0,0,1,1.76,1.13l.88-.44a2.67,2.67,0,0,0-2.62-1.56c-1.86,0-3,1.42-3,3.34s1.16,3.35,3,3.35a2.17,2.17,0,0,0,2.1-1.16v1h.84v-3.46H143.9Z"/><path class="cls-2" d="M150.23,389.08a2.47,2.47,0,0,0,0,4.93,2.06,2.06,0,0,0,1.92-1l-.78-.45a1.18,1.18,0,0,1-1.13.66,1.44,1.44,0,0,1-1.42-1.39h3.65c0-.15,0-.31,0-.46a2.18,2.18,0,0,0-2.24-2.28m-1.41,2a1.39,1.39,0,0,1,2.77,0Z"/><rect class="cls-2" x="153.2" y="387.45" width="0.88" height="6.42"/><path class="cls-2" d="M158.84,392.74v-2c0-1-.74-1.65-2-1.65a2.06,2.06,0,0,0-1.88,1l.79.47a1.16,1.16,0,0,1,1.1-.68.93.93,0,0,1,1.06,1v.24h-1.35c-1,0-1.85.45-1.85,1.45s.88,1.44,1.8,1.44a1.66,1.66,0,0,0,1.51-.72c.07.42.36.61.89.61h.36v-.75h-.1c-.28,0-.38-.09-.38-.38m-.88-.68a1.14,1.14,0,0,1-1.29,1.17c-.61,0-1-.28-1-.71s.33-.71,1.06-.71H158v.25Z"/><path class="cls-2" d="M161.12,387.45h-.88v1.77h-.92V390h.92v2.65c0,.85.47,1.25,1.36,1.25h.86v-.74h-.62c-.56,0-.72-.17-.72-.66V390h1.34v-.75h-1.34Z"/><path class="cls-2" d="M165.09,389.08a2.47,2.47,0,1,0,2.37,2.46,2.29,2.29,0,0,0-2.37-2.46m0,4.14a1.69,1.69,0,1,1,1.48-1.68,1.49,1.49,0,0,1-1.48,1.68Z"/></g></g><path id="path2996" class="cls-2" d="M115.3,377c-.63,0-1.32-.07-1.93-.15a10.64,10.64,0,0,1-6-2.45,3.24,3.24,0,0,1-1-1.64,2.78,2.78,0,0,1,0-.94,2.69,2.69,0,0,1,.5-1.11,6.47,6.47,0,0,1,2.89-2.06,16.82,16.82,0,0,1,7.85-1c3.28.34,6,1.53,7,3.13a2.55,2.55,0,0,1,.35,2.3,3.46,3.46,0,0,1-.86,1.31,10.29,10.29,0,0,1-5.59,2.39,18.34,18.34,0,0,1-3.34.21Zm1.43-.6a14.75,14.75,0,0,0,3.5-.61,9.17,9.17,0,0,0,2.27-1,4.76,4.76,0,0,0,.76-.62,3.05,3.05,0,0,0,.63-.86,2,2,0,0,0,.23-1,2.09,2.09,0,0,0-.24-1,2.76,2.76,0,0,0-.62-.84,5.88,5.88,0,0,0-1.55-1.08,12.56,12.56,0,0,0-4.42-1.16,18.16,18.16,0,0,0-3,0,10.58,10.58,0,0,0-5.68,2,5.11,5.11,0,0,0-.57.57,2.37,2.37,0,0,0-.58,1.68,2.67,2.67,0,0,0,.85,1.68,5.84,5.84,0,0,0,1.51,1.05,13,13,0,0,0,5.23,1.24c.23,0,1.4,0,1.63,0Zm-6.67-1.73s0,0,0,0a19.5,19.5,0,0,1,0-2.22v-2.19l0,0s0,0-.13,0h-.1v-.28h1.49l0,0,0,0v.79c0,.87,0,.84.06.84s0,0,.27-.33c.57-.81.89-1.25.92-1.28s0-.08.76-.08h.65l0,0a.1.1,0,0,1,0,.1l-1.27,1.89c-.11.16-.14.21-.14.23a3.25,3.25,0,0,0,.37.55,18.36,18.36,0,0,1,1.32,1.9.06.06,0,0,1,0,.07l0,0h-.68a2.88,2.88,0,0,1-.73,0,.13.13,0,0,1-.07,0s-.33-.44-.69-1-.67-.94-.68-.94a.07.07,0,0,0-.09,0s0,.22,0,.95v.93l0,0,0,0h-1.17Zm5.14,0,0,0s0-.51,0-2.21v-2.19l0,0s0,0-.13,0h-.1v-.29h1.52l0,0,0,0v4.68l0,0,0,0H115.2Zm2.21,0a.09.09,0,0,1,0-.08l.33-1,.63-1.88c.16-.5.34-1,.39-1.17a2.27,2.27,0,0,0,.09-.29.11.11,0,0,0,0-.05s0,0-.12,0h-.1v-.29h.91c.6,0,.93,0,1,0a.09.09,0,0,1,0,0s.12.32.6,1.76c.78,2.34,1,2.88,1,2.9a.09.09,0,0,1,0,.08h-1.2a.15.15,0,0,1-.06-.05s-.09-.25-.17-.52c-.83-2.58-.81-2.51-.83-2.53s0,0,0,0,0,.12-.5,1.54c-.13.41-.27.85-.32,1s-.09.3-.11.38-.07.18-.12.2-1.17,0-1.2,0Z"/><path class="cls-21" d="M179.15,366a35.65,35.65,0,1,0,35.64-35.65A35.65,35.65,0,0,0,179.15,366Z"/><path class="cls-22" d="M179.15,366a35.65,35.65,0,1,0,35.64-35.65A35.65,35.65,0,0,0,179.15,366Z"/><path class="cls-23" d="M185.06,366a29.74,29.74,0,1,0,29.73-29.74A29.74,29.74,0,0,0,185.06,366Z"/><path class="cls-24" d="M230.7,372.85l-1.73-.43a7.6,7.6,0,0,0-.58-1.38l.92-1.53a.56.56,0,0,0-.08-.68l-1.72-1.72a.56.56,0,0,0-.68-.09l-1.53.92-.61-.29a7.25,7.25,0,0,0-.78-.28l-.43-1.74a.55.55,0,0,0-.54-.41h-2.43a.55.55,0,0,0-.54.41l-.43,1.74a7.57,7.57,0,0,0-1.38.57l-1.54-.92a.55.55,0,0,0-.67.09l-1.73,1.72a.56.56,0,0,0-.08.68l.92,1.53a6.92,6.92,0,0,0-.57,1.38l-1.74.43a.56.56,0,0,0-.42.54v2.44a.56.56,0,0,0,.42.53l1.74.44a7.17,7.17,0,0,0,.57,1.38l-.92,1.53a.54.54,0,0,0,.08.67l1.73,1.73a.55.55,0,0,0,.67.08l1.53-.92a7.7,7.7,0,0,0,1.39.58l.43,1.73a.56.56,0,0,0,.54.42h2.43a.56.56,0,0,0,.54-.42l.43-1.73a7.6,7.6,0,0,0,1.38-.58l1.54.92a.55.55,0,0,0,.67-.08l1.73-1.73a.54.54,0,0,0,.08-.67l-.92-1.53a7.17,7.17,0,0,0,.57-1.38l1.74-.44a.56.56,0,0,0,.42-.53v-2.44A.56.56,0,0,0,230.7,372.85ZM230,375.4l-1.62.4a.56.56,0,0,0-.4.4,6.58,6.58,0,0,1-.71,1.71.56.56,0,0,0,0,.56l.86,1.44L227,381l-1.44-.87a.56.56,0,0,0-.56,0,6.25,6.25,0,0,1-1.71.71.56.56,0,0,0-.4.4l-.41,1.63h-1.57l-.41-1.63a.54.54,0,0,0-.4-.4,6.19,6.19,0,0,1-1.7-.71.58.58,0,0,0-.57,0l-1.43.87-1.12-1.12.86-1.43a.53.53,0,0,0,0-.57,6.49,6.49,0,0,1-.7-1.7.56.56,0,0,0-.41-.4l-1.62-.41v-1.58l1.62-.41a.54.54,0,0,0,.41-.4,6.63,6.63,0,0,1,.7-1.7.53.53,0,0,0,0-.57l-.86-1.43,1.11-1.12,1.44.86a.53.53,0,0,0,.57,0,6.49,6.49,0,0,1,1.7-.7.56.56,0,0,0,.4-.4l.41-1.63h1.57l.41,1.63a.56.56,0,0,0,.4.4,6.19,6.19,0,0,1,1.7.71.58.58,0,0,0,.57,0l1.44-.87,1.11,1.11-.86,1.44a.58.58,0,0,0,0,.57A6.19,6.19,0,0,1,228,373a.54.54,0,0,0,.4.4l1.62.41Z"/><path class="cls-24" d="M221.73,370.19a4.42,4.42,0,1,0,4.42,4.42A4.42,4.42,0,0,0,221.73,370.19Zm0,7.73a3.32,3.32,0,1,1,3.31-3.31A3.32,3.32,0,0,1,221.73,377.92Z"/><path class="cls-24" d="M224.49,357.48h1.1v8.84h-1.1Z"/><path class="cls-24" d="M201.28,379v2.21a.56.56,0,0,0,.56.55h11.6v-1.1H202.39V379H209a.57.57,0,0,0,.25-.06l2.21-1.1a.56.56,0,0,0,0-1l-2.21-1.11a.76.76,0,0,0-.25-.06h-6.63V356.93h21a2.21,2.21,0,0,0,2.21-2.21v-1.11a.55.55,0,0,0-.55-.55h-1.66v1.11h1.11v.55a1.11,1.11,0,0,1-2.21,0v-1.66a1.1,1.1,0,0,1,1.1-1.1h2.21a1.11,1.11,0,0,1,1.11,1.1v12.71h1.1V353.06a2.21,2.21,0,0,0-2.21-2.21H201.28a2.21,2.21,0,0,0-2.21,2.21v1.66a2.21,2.21,0,0,0,2.21,2.21v18.78h-.55a1.66,1.66,0,0,0,0,3.32Zm-1.1-24.31v-1.66a1.1,1.1,0,0,1,1.1-1.1h20.2a2.22,2.22,0,0,0-.31,1.1v1.66a2.22,2.22,0,0,0,.31,1.1h-20.2A1.1,1.1,0,0,1,200.18,354.72ZM210,377.37l-1.1.55h-.42v-1.1h.42Zm-9.81,0a.55.55,0,0,1,.55-.55h6.63v1.1h-6.63A.55.55,0,0,1,200.18,377.37Z"/><path class="cls-24" d="M199.07,359.14h1.11v11.05h-1.11Z"/><path class="cls-24" d="M220.62,359.69v-1.1h-7.18a.51.51,0,0,0-.39.16l-1,1a6.05,6.05,0,0,0-7.87.61.54.54,0,0,0,0,.78l3.91,3.9a.52.52,0,0,0,.39.17H214a.55.55,0,0,0,.55-.56,6,6,0,0,0-1.67-4.17l.8-.8Zm-7.21,4.42H208.7l-3.34-3.33a5,5,0,0,1,5.89-.23l-1.52,1.51.78.78,1.58-1.57A4.93,4.93,0,0,1,213.41,364.11Z"/><path class="cls-24" d="M221.73,358.59h1.1v1.1h-1.1Z"/><path class="cls-24" d="M205.15,366.87h1.11V368h-1.11Z"/><path class="cls-24" d="M207.36,366.87h5.53V368h-5.53Z"/><path class="cls-24" d="M204.05,369.08h8.84v1.11h-8.84Z"/><path class="cls-24" d="M216.2,360.8h1.11v1.1H216.2Z"/><path class="cls-24" d="M218.41,360.8h4.42v1.1h-4.42Z"/><path class="cls-24" d="M216.2,363h6.63v1.1H216.2Z"/><path class="cls-24" d="M204.05,371.29h7.18v1.11h-7.18Z"/><rect class="cls-2" x="237.6" y="327.39" width="51.27" height="1" transform="translate(-135.39 194.1) rotate(-32.69)"/><path class="cls-2" d="M280.52,314a4.3,4.3,0,1,0,4.29-4.3A4.3,4.3,0,0,0,280.52,314Z"/><path class="cls-2" d="M238.79,341.73a2.87,2.87,0,1,0,2.87-2.87A2.87,2.87,0,0,0,238.79,341.73Z"/><rect class="cls-2" x="584.25" y="361.87" width="91.29" height="0.75"/><text class="cls-41" transform="translate(584.25 356.1)">C<tspan class="cls-11" x="8.37" y="0">AREER</tspan></text><text class="cls-4" transform="translate(584.25 379.66)"><tspan class="cls-42">V</tspan><tspan x="8.65" y="0">ISI</tspan><tspan class="cls-5" x="23.92" y="0">T</tspan><tspan x="31.13" y="0">: </tspan><tspan class="cls-43" x="37.74" y="0">c</tspan><tspan x="44.62" y="0">ode</tspan><tspan class="cls-44" x="67.74" y="0">t</tspan><tspan x="72.71" y="0">e</tspan><tspan class="cls-45" x="80.1" y="0">.</tspan><tspan class="cls-31" x="83.33" y="0">c</tspan><tspan x="90.21" y="0">om</tspan><tspan class="cls-46" x="109.93" y="0">/</tspan><tspan x="114" y="0">ca</tspan><tspan class="cls-47" x="128.18" y="0">r</tspan><tspan x="133.21" y="0">eer</tspan></text><path class="cls-21" d="M570.19,366a35.65,35.65,0,1,1-35.65-35.65A35.65,35.65,0,0,1,570.19,366Z"/><path class="cls-22" d="M570.19,366a35.65,35.65,0,1,1-35.65-35.65A35.65,35.65,0,0,1,570.19,366Z"/><path class="cls-23" d="M564.28,366a29.74,29.74,0,1,1-29.74-29.74A29.75,29.75,0,0,1,564.28,366Z"/><rect class="cls-2" x="485.6" y="302.25" width="1" height="51.27" transform="translate(-52.39 559.91) rotate(-57.31)"/><path class="cls-2" d="M468.82,314a4.3,4.3,0,1,1-4.3-4.3A4.31,4.31,0,0,1,468.82,314Z"/><path class="cls-2" d="M510.54,341.73a2.87,2.87,0,1,1-2.87-2.87A2.86,2.86,0,0,1,510.54,341.73Z"/><path class="cls-24" d="M549.82,366v-4.93a4.43,4.43,0,0,0-3.6-4.35,3.41,3.41,0,0,0,1.13-2.55,3.45,3.45,0,1,0-5.85,2.47h-6.71a1.71,1.71,0,0,0-1.58,1l-4.13,2.54a2.45,2.45,0,0,1-1.29.37h-.2a3.45,3.45,0,1,0-4.53.25,5.43,5.43,0,0,0-3.8,5.17v3.45a2,2,0,0,0,2,2h.5v6.9a2.48,2.48,0,0,0-2.47,2.47v.49h11.83v-.49a2.47,2.47,0,0,0-2.46-2.47V366.12a2.47,2.47,0,0,1,1.12-2.07l6.15-4H540a.49.49,0,0,1,.49.49v15.77h0A2.47,2.47,0,0,0,538,378.8v2.47h11.83V378.8a2.47,2.47,0,0,0-2.47-2.46v-7.89A2.47,2.47,0,0,0,549.82,366Zm-8.38-11.83a2.47,2.47,0,1,1,2.46,2.47A2.46,2.46,0,0,1,541.44,354.16Zm-18.73,3.94a2.47,2.47,0,1,1,2.47,2.47A2.47,2.47,0,0,1,522.71,358.1ZM530,380.28h-9.69a1.49,1.49,0,0,1,1.4-1h6.9A1.47,1.47,0,0,1,530,380.28Zm-.8-17.06a3.45,3.45,0,0,0-1.58,2.9v12.19h-2v-8.87h-1v8.87h-2V365h-1v5.43h-.5a1,1,0,0,1-1-1V366a4.44,4.44,0,0,1,4.43-4.44h3.11a3.42,3.42,0,0,0,1.81-.51l3.55-2.18a1.72,1.72,0,0,0,1.08,1.12Zm19.61,15.58v1.48H539V378.8a1.47,1.47,0,0,1,1.47-1.47h6.9A1.47,1.47,0,0,1,548.83,378.8Zm-2.46-18.72v16.26h-2V365h-1v11.34h-2V360.57a1.48,1.48,0,0,0-1.48-1.48h-5.17a.74.74,0,1,1,0-1.48h10.59a3.45,3.45,0,0,1,3.45,3.45V366a1.48,1.48,0,0,1-1.48,1.48v-7.39Z"/><path class="cls-24" d="M535,353.18a2.47,2.47,0,0,0-2.46-2.47h-2a2.48,2.48,0,0,0-2.47,2.47v2.46h4.44A2.46,2.46,0,0,0,535,353.18Zm-5.91,0a1.48,1.48,0,0,1,1.48-1.48h2a1.48,1.48,0,1,1,0,2.95h-3.45Z"/><path class="cls-24" d="M529.33,352.5h1.07v1.07h-1.07Z"/><path class="cls-24" d="M532.08,352.68h1v1h-1Z"/><path class="cls-24" d="M539.47,364.51v-2.46H535a2.47,2.47,0,0,0,0,4.93h2A2.48,2.48,0,0,0,539.47,364.51Zm-1,0A1.48,1.48,0,0,1,537,366h-2a1.48,1.48,0,0,1,0-3h3.45Z"/><path class="cls-24" d="M536.51,364h1v1h-1Z"/><path class="cls-24" d="M534.54,364h1v1h-1Z"/><rect class="cls-2" x="32.17" y="232.48" width="91.29" height="0.75"/><text class="cls-4" transform="translate(87.46 226.71)">TEAM</text><text class="cls-48" transform="translate(30.72 247.65)"><tspan class="cls-49">O</tspan><tspan class="cls-50" x="6.57" y="0">V</tspan><tspan x="12.42" y="0">ER 150 EM</tspan><tspan class="cls-51" x="54.53" y="0">P</tspan><tspan class="cls-52" x="60.3" y="0">L</tspan><tspan class="cls-53" x="65.04" y="0">O</tspan><tspan class="cls-54" x="71.55" y="0">Y</tspan><tspan x="76.9" y="0">EES</tspan></text><path class="cls-21" d="M143.19,225.61a35.65,35.65,0,1,0,49.64-8.76A35.64,35.64,0,0,0,143.19,225.61Z"/><path class="cls-22" d="M143.19,225.61a35.65,35.65,0,1,0,49.64-8.76A35.64,35.64,0,0,0,143.19,225.61Z"/><path class="cls-23" d="M148,229a29.74,29.74,0,1,0,41.41-7.3A29.73,29.73,0,0,0,148,229Z"/><rect class="cls-2" x="208.04" y="245.55" width="53.43" height="1"/><path class="cls-2" d="M257.17,246.05a4.3,4.3,0,1,0,4.29-4.29A4.29,4.29,0,0,0,257.17,246.05Z"/><path class="cls-2" d="M205.17,246.05a2.87,2.87,0,1,0,2.87-2.87A2.86,2.86,0,0,0,205.17,246.05Z"/><path class="cls-24" d="M162.3,241.42a5.7,5.7,0,1,0-5.7-5.69A5.7,5.7,0,0,0,162.3,241.42Zm0-10.16a4.47,4.47,0,1,1-4.47,4.47A4.47,4.47,0,0,1,162.3,231.26Z"/><path class="cls-24" d="M162.79,237.08a.62.62,0,0,0,.87-.87l-.74-.74v-2.73a.62.62,0,0,0-.62-.62.61.61,0,0,0-.61.62v3a.58.58,0,0,0,.18.43Z"/><path class="cls-24" d="M187.5,250.46h-3.79a3.65,3.65,0,0,0-2.19-1.46l-2.71-.59a4.13,4.13,0,0,0,1.84-3.44v-2.36a4.16,4.16,0,0,0-8.31,0V245a4.16,4.16,0,0,0,1.83,3.44l-2.7.59-.34.1V244a.61.61,0,0,0-.62-.61h-4.18a.61.61,0,0,0-.62.61.62.62,0,0,0,.62.62h3.57v8.61h-4.19v-3.07a1.85,1.85,0,1,0-3.69,0v3.07h-4.19v-8.61h3.57A.62.62,0,0,0,162,244a.61.61,0,0,0-.62-.61h-4.18a.61.61,0,0,0-.62.61v9.85a.62.62,0,0,0,.62.62H162v1.16H162a1.92,1.92,0,0,0-1.91,1.91v.31h-2.83a.62.62,0,0,0-.62.62v2.46a.61.61,0,0,0,.62.61H187.5a.61.61,0,0,0,.62-.61v-9.85A.62.62,0,0,0,187.5,250.46Zm-3.74,7.39h-3.52v-1.23h6.65v1.23Zm3.13-2.46h-6.65v-1.23h6.65Zm0-2.46h-6.65V251.7h6.65Zm-13.32-10.32a2.92,2.92,0,0,1,5.84-.23l-1.43-.84a.63.63,0,0,0-.79.14,3.26,3.26,0,0,1-2.5,1.17h-1.12v-.24Zm0,1.47h1.12a4.47,4.47,0,0,0,3.09-1.23l1.64,1V245a2.93,2.93,0,0,1-5.85,0v-.89Zm3.89,4.93-1,2.6-1-2.61a4,4,0,0,0,1,.12A4.37,4.37,0,0,0,177.46,249Zm-7,5.46a.62.62,0,0,0,.62-.62v-3.42a2.17,2.17,0,0,1,.6-.22l2.7-.6,1.48,4a.61.61,0,0,0,1.15,0l1.49-4,2.7.6a2.64,2.64,0,0,1,.68.25h-2.31a.61.61,0,0,0-.61.62v6.77h-9.16v-3.38Zm-1.89,0v3.38h-.94v-.31a1.91,1.91,0,0,0-1.91-1.91h-.06v-1.16Zm-5.37-4.31a.62.62,0,0,1,.62-.62.61.61,0,0,1,.61.62v5.47h-1.23Zm-2,7.38a.67.67,0,0,1,.68-.67h3.81a.67.67,0,0,1,.68.67v.31h-5.17Zm25.61,2.77H157.83v-1.23h29.06Z"/><path class="cls-24" d="M163.43,243.57a.62.62,0,0,0-.18.43.67.67,0,0,0,.18.44.65.65,0,0,0,.44.18.61.61,0,0,0,.61-.62.61.61,0,0,0-.61-.61A.6.6,0,0,0,163.43,243.57Z"/><rect class="cls-2" x="594.21" y="107.63" width="134.21" height="0.75"/><text class="cls-4" transform="translate(593.21 101.86)">T<tspan class="cls-55" x="7.32" y="0">E</tspan><tspan x="15.05" y="0">CHNO</tspan><tspan class="cls-56" x="51.88" y="0">L</tspan><tspan x="58.79" y="0">OGIES</tspan></text><path class="cls-21" d="M555.09,90a35.65,35.65,0,1,1-45.69,21.3A35.65,35.65,0,0,1,555.09,90Z"/><path class="cls-22" d="M555.09,90a35.65,35.65,0,1,1-45.69,21.3A35.65,35.65,0,0,1,555.09,90Z"/><path class="cls-23" d="M553.06,95.54A29.74,29.74,0,1,1,515,113.31,29.73,29.73,0,0,1,553.06,95.54Z"/><rect class="cls-2" x="460.92" y="159.11" width="58.04" height="1" transform="translate(16.03 361.91) rotate(-41.16)"/><path class="cls-2" d="M472.39,178.71a4.3,4.3,0,1,0-4.3,4.29A4.3,4.3,0,0,0,472.39,178.71Z"/><path class="cls-2" d="M514.66,140.51a2.87,2.87,0,1,0-2.87,2.86A2.86,2.86,0,0,0,514.66,140.51Z"/><path class="cls-24" d="M559.3,123H551V121.8h2.23a.51.51,0,0,0,0-1H551v-1.17h1.55a2.18,2.18,0,0,0,1.52-.63l3.38-3.38a1.58,1.58,0,0,0,.71.17,1.61,1.61,0,0,0,1.14-.47,1.59,1.59,0,0,0,.47-1.14,1.57,1.57,0,0,0-.47-1.14,1.61,1.61,0,0,0-1.14-.47,1.62,1.62,0,0,0-1.61,1.61,1.62,1.62,0,0,0,.17.72l-3.37,3.37a1.15,1.15,0,0,1-.8.33H551v-1.13a2.72,2.72,0,0,0-2.71-2.71H547.2V110.2a1.61,1.61,0,1,0-1,0v4.54H545v-2.23a.52.52,0,0,0-1,0v2.23h-1.17v-8.26a.51.51,0,0,0-.51-.51.51.51,0,0,0-.51.51v8.26h-1.17v-2.23a.52.52,0,0,0-1,0v2.23h-1.17v-1.55a2.13,2.13,0,0,0-.63-1.52l-3.37-3.38a1.62,1.62,0,0,0-.31-1.85,1.61,1.61,0,1,0-1.14,2.75,1.65,1.65,0,0,0,.72-.17l3.38,3.37a1.15,1.15,0,0,1,.33.8v1.55h-1.13a2.59,2.59,0,0,0-.68.09.51.51,0,0,0,.25,1,2,2,0,0,1,.43,0h12.06a1.68,1.68,0,0,1,1.68,1.68v12.07a2,2,0,0,1,0,.42.51.51,0,0,0,.37.62l.13,0a.51.51,0,0,0,.49-.39,2.57,2.57,0,0,0,.09-.67v-1.14h4.54a1.61,1.61,0,1,0,0-1H551v-1.17h2.23a.52.52,0,0,0,0-1H551V124h8.26a.52.52,0,0,0,0-1Zm-1.51-9.22a.58.58,0,0,1,.41-.17.59.59,0,0,1,.42.17.57.57,0,0,1,.17.41.58.58,0,0,1-.17.41.59.59,0,0,1-.42.17.58.58,0,0,1-.58-.58A.57.57,0,0,1,557.79,113.75ZM533.39,108a.59.59,0,1,1-.83-.83A.6.6,0,0,1,533,107a.63.63,0,0,1,.42.17A.6.6,0,0,1,533.39,108Zm13.3,1.27a.59.59,0,1,1,.58-.59A.58.58,0,0,1,546.69,109.26Zm10.42,18a.58.58,0,0,1,0,1.16.58.58,0,1,1,0-1.16Z"/><path class="cls-24" d="M552.76,138.25a1.6,1.6,0,0,0-1.85-.3l-3.38-3.38a1.14,1.14,0,0,1-.33-.8v-1.55h1.13a3.08,3.08,0,0,0,.68-.08.52.52,0,0,0-.26-1,1.47,1.47,0,0,1-.42.06H536.27a1.69,1.69,0,0,1-1.69-1.68V117.45a1.52,1.52,0,0,1,.06-.42.52.52,0,1,0-1-.26,3.08,3.08,0,0,0-.08.68v1.13H529a1.61,1.61,0,0,0-3.14.52,1.61,1.61,0,0,0,3.14.51h4.54v1.17h-2.23a.51.51,0,1,0,0,1h2.23V123H525.3a.52.52,0,1,0,0,1h8.26v1.16h-2.23a.52.52,0,0,0,0,1h2.23v1.17H532a2.14,2.14,0,0,0-1.53.63l-3.37,3.37a1.65,1.65,0,0,0-1.86.31,1.61,1.61,0,0,0-.47,1.14,1.6,1.6,0,0,0,1.61,1.61,1.61,1.61,0,0,0,1.14-.47,1.59,1.59,0,0,0,.47-1.14,1.73,1.73,0,0,0-.16-.72l3.37-3.37a1.1,1.1,0,0,1,.8-.34h1.55v1.14a2.7,2.7,0,0,0,2.71,2.7h1.13v4.55a1.61,1.61,0,1,0,1,0v-4.55h1.17v2.23a.52.52,0,1,0,1,0v-2.23h1.17v8.27a.51.51,0,0,0,.51.51.51.51,0,0,0,.51-.51v-8.27H544v2.23a.52.52,0,1,0,1,0v-2.23h1.16v1.55a2.15,2.15,0,0,0,.64,1.53l3.37,3.37a1.62,1.62,0,0,0,.3,1.86,1.64,1.64,0,0,0,1.14.47,1.61,1.61,0,0,0,1.14-2.75Zm-25.27-18.57a.59.59,0,1,1,.58-.58A.58.58,0,0,1,527.49,119.68Zm-.68,13.54a.59.59,0,0,1-.42.17.58.58,0,0,1-.58-.58.59.59,0,0,1,.17-.42.58.58,0,0,1,.41-.17.58.58,0,0,1,.59.59A.58.58,0,0,1,526.81,133.22Zm11.68,5.07a.58.58,0,1,1-1.16,0,.58.58,0,1,1,1.16,0ZM552,139.8a.59.59,0,0,1-.83,0,.57.57,0,0,1,0-.82.55.55,0,0,1,.41-.18.59.59,0,0,1,.42,1Z"/><path class="cls-24" d="M547.75,122.11a2.48,2.48,0,0,0-1.9-2.33,1.84,1.84,0,0,0,0-.41,2,2,0,0,0-2.06-1.89,2.15,2.15,0,0,1-3.08,0,2,2,0,0,0-2.06,1.89,1.84,1.84,0,0,0,0,.41,2.47,2.47,0,0,0-1.9,2.33,2.25,2.25,0,0,0,.54,1.46,2.56,2.56,0,0,0-.54,1.56,2.65,2.65,0,0,0,1.23,2.19h0a2.27,2.27,0,0,0,2.37,2.16,2.5,2.5,0,0,1,3.7,0,2.3,2.3,0,0,0,2.36-2,2.42,2.42,0,0,0,1.24-2.06,2.28,2.28,0,0,0-.72-1.64A2.3,2.3,0,0,0,547.75,122.11Zm-1.82,2.1a1.36,1.36,0,0,1,.79,1.19,1.34,1.34,0,0,1-.45,1,2.32,2.32,0,0,0-1.35-1.09.51.51,0,0,0-.64.34.5.5,0,0,0,.33.64,1.16,1.16,0,0,1,.88,1.06,1.36,1.36,0,0,1-2.68,0V124a1.25,1.25,0,0,1,1.34-1.13.52.52,0,0,0,0-1,2.5,2.5,0,0,0-1.34.38v-.65a.52.52,0,1,0-1,0v2.85a2.63,2.63,0,0,0-.56-.27.53.53,0,0,0-.65.34.51.51,0,0,0,.34.64,1.17,1.17,0,0,1,.87,1.07v1.09a1.35,1.35,0,0,1-2.67,0,1,1,0,0,1,.32-.73.52.52,0,1,0-.73-.73,2.38,2.38,0,0,0-.31.4,1.56,1.56,0,0,1-.52-1.13,1.76,1.76,0,0,1,1.46-1.63.51.51,0,0,0-.23-1,2.92,2.92,0,0,0-.94.39,1.21,1.21,0,0,1-.28-.78,1.53,1.53,0,0,1,1.63-1.4h0a.46.46,0,0,0,.33-.13.51.51,0,0,0,.11-.66v0h0l0,0h0a.79.79,0,0,1-.18-.49,1,1,0,0,1,2,0,.52.52,0,0,0,1,0,1,1,0,0,1,2.06,0,.63.63,0,0,1-.08.32,3,3,0,0,0-.84.21.52.52,0,0,0-.27.68.51.51,0,0,0,.67.27,1.87,1.87,0,0,1,.71-.14h0a1.53,1.53,0,0,1,1.63,1.4,1.35,1.35,0,0,1-.79,1.19.52.52,0,0,0-.27.46A.5.5,0,0,0,545.93,124.21Z"/><g id="Kompozycja_3" data-name="Kompozycja 3"><g class="cls-57"><polygon class="cls-58" points="401.29 230.03 414.51 248.36 393.43 277.68 406.67 277.68 427.88 248.36 427.88 248.36 406.72 219.32 401.29 230.03"/><g class="cls-57"><path class="cls-59" d="M356.44,219.34l-20.95,29,13.29,18.48-5.45,10.85-21.22-29.33s18.59-25.28,21.08-28.68l.28-.37Z"/><polygon class="cls-60" points="377.12 277.71 364.07 277.7 393.47 219.31 406.72 219.31 377.12 277.71"/><polygon class="cls-60" points="356.42 277.66 343.31 277.68 372.8 219.25 386.05 219.25 356.42 277.66"/></g></g></g><g id="Inteligentny_obiekt_wektorowy-2" data-name="Inteligentny obiekt wektorowy"><g class="cls-61"><g class="cls-61"><path class="cls-2" d="M611.12,120.29c0-1.22-.35-1.84-1-1.88a1.87,1.87,0,0,0-.81.14,1.12,1.12,0,0,0-.42.22v2.91a2.05,2.05,0,0,0,1.18.39c.73,0,1.09-.64,1.09-1.78m.86,0a2.6,2.6,0,0,1-.44,1.54,1.59,1.59,0,0,1-1.35.71,2.36,2.36,0,0,1-1.34-.4v2.64l-.75-.27V118.7a1.66,1.66,0,0,1,.47-.39,3.26,3.26,0,0,1,1.62-.4h0a1.5,1.5,0,0,1,1.34.72,3,3,0,0,1,.44,1.7"/><path class="cls-2" d="M616.53,122.07a4.09,4.09,0,0,1-.25,1.73,1.75,1.75,0,0,1-.95.76,3.8,3.8,0,0,1-1.24.25l-.12-.47a6,6,0,0,0,.95-.18,1.26,1.26,0,0,0,.74-.56,2.82,2.82,0,0,0,.17-1.18v-.19a3.87,3.87,0,0,1-1.6.34,1.47,1.47,0,0,1-1-.34,1.16,1.16,0,0,1-.47-1v-3.1l.74-.26V121a1,1,0,0,0,.32.78,1.28,1.28,0,0,0,.84.26,2.12,2.12,0,0,0,1.1-.4V118h.74Z"/><path class="cls-2" d="M619.44,122.55h-.25a1.45,1.45,0,0,1-1-.3,1.05,1.05,0,0,1-.35-.83V118.5h-.51V118h.51v-1.25l.74-.26V118h.84v.47h-.84v2.91a.69.69,0,0,0,.23.59,1.14,1.14,0,0,0,.61.17Z"/><path class="cls-2" d="M624,122.49h-.74v-2.87a1.33,1.33,0,0,0-.21-.76.74.74,0,0,0-.66-.35,2.44,2.44,0,0,0-1.28.54v3.44h-.74v-6.87l.74-.24v3.14a2.59,2.59,0,0,1,1.56-.52,1.24,1.24,0,0,1,1,.39,1.4,1.4,0,0,1,.37,1Z"/><path class="cls-2" d="M627.91,120.17a2.29,2.29,0,0,0-.27-1.16,1.1,1.1,0,0,0-1-.59c-.82,0-1.23.64-1.23,1.76a2.93,2.93,0,0,0,.26,1.29,1,1,0,0,0,1,.65q1.23,0,1.23-2m.82,0a2.65,2.65,0,0,1-.51,1.66,1.85,1.85,0,0,1-1.55.75,1.8,1.8,0,0,1-1.54-.75,2.71,2.71,0,0,1-.5-1.66,2.32,2.32,0,0,1,.55-1.58,1.85,1.85,0,0,1,1.5-.69,1.9,1.9,0,0,1,1.51.69,2.37,2.37,0,0,1,.54,1.58"/><path class="cls-2" d="M633,122.49h-.75v-3a1,1,0,0,0-.3-.78,1.16,1.16,0,0,0-.8-.27,1.87,1.87,0,0,0-1,.35v3.74h-.75v-3.83a3.64,3.64,0,0,1,1.19-.61,3.6,3.6,0,0,1,.9-.14,2.07,2.07,0,0,1,.5.06,1.39,1.39,0,0,1,.71.37,1,1,0,0,1,.31.74Z"/></g><path class="cls-2" d="M599.11,116.76a.42.42,0,1,1,.84,0,.42.42,0,1,1-.84,0m1.63-1.11a5.93,5.93,0,0,0-1.07.09c-.95.17-1.12.52-1.12,1.16v.86h2.24V118h-3.08a1.41,1.41,0,0,0-1.4,1.14,4.87,4.87,0,0,0-.16,1.13v0a4.57,4.57,0,0,0,.16,1.13c.16.66.54,1.14,1.19,1.14h.77v-1a1.42,1.42,0,0,1,1.4-1.39h2.24A1.12,1.12,0,0,0,603,119V116.9a1.25,1.25,0,0,0-1.12-1.16,7.17,7.17,0,0,0-1.13-.09h0"/><g class="cls-62"><polygon class="cls-2" points="592.75 119.64 600.11 126.03 606.44 118.6 599.08 112.21 592.75 119.64"/></g><path class="cls-2" d="M601.63,123.88a.42.42,0,0,1,.42-.43.43.43,0,1,1-.42.43m1.68-5.84v1a1.43,1.43,0,0,1-1.4,1.42h-2.24a1.15,1.15,0,0,0-1.12,1.14v2.13c0,.61.53,1,1.12,1.14a4.21,4.21,0,0,0,1.1.18h0a4.27,4.27,0,0,0,1.11-.18c.57-.16,1.12-.49,1.12-1.14v-.85h-2.24v-.28h3.36c.66,0,.9-.46,1.13-1.14a3.92,3.92,0,0,0,0-2.28c-.17-.65-.47-1.14-1.13-1.14Z"/><g class="cls-63"><polygon class="cls-2" points="608.78 122.71 603.19 114.73 595.28 120.38 600.87 128.36 608.78 122.71"/></g><g class="cls-61"><path class="cls-2" d="M634.45,117.36h.13v-.82h.31v-.09h-.75v.09h.31Zm.55,0h.11v-.75l.25.75h.12l.25-.74v.74h.13v-.91h-.17l-.27.78-.24-.78H635v.91"/></g></g></g><g id="Inteligentny_obiekt_wektorowy-4" data-name="Inteligentny obiekt wektorowy"><g class="cls-65"><g class="cls-65"><path class="cls-66" d="M714.45,120.76h.64c.11,0,.14-.05.16-.15l.24-1.07c0-.11,0-.12-.12-.12h-.62l-.3,1.34m-4-1.36h.68c.13,0,.12.07.09.18-.07.35-.15.7-.23,1,0,.12-.1.12-.21.12h-.69c-.1,0-.1-.06-.08-.14.08-.35.15-.7.23-1,0-.13.08-.16.21-.16m-4.47,0h.68c.13,0,.12.07.1.18l-.24,1c0,.12-.1.12-.2.12h-.69c-.11,0-.11-.06-.09-.14.08-.35.16-.7.23-1,0-.13.08-.16.21-.16m-3.65,0h-.63c-.11,0-.14.05-.16.15l-.24,1.07c0,.1,0,.12.12.12h.61l.3-1.34m9.33,4.07h2.15l.27-1.21H716a1.44,1.44,0,0,0,.81-.25,1.39,1.39,0,0,0,.57-.85c.14-.62.27-1.23.41-1.85a1.22,1.22,0,0,0-.07-1.07,1,1,0,0,0-.88-.31h-7.3a1.47,1.47,0,0,0-.67.19,1,1,0,0,0-.63-.19h-3.34l.28-1.23H703l-.27,1.2h-1.89a1.37,1.37,0,0,0-.74.22,1.09,1.09,0,0,0-.63-.19h-6.26c.09-.41.19-.83.28-1.25h-2.15c-.42,1.85-.83,3.71-1.24,5.56h2.15c.21-1,.43-1.9.65-2.85h.72c.09,0,.07,0,.06.12-.2.91-.41,1.82-.61,2.73h14.27a1.36,1.36,0,0,0,.65-.16,1.1,1.1,0,0,0,.67.19l3.3,0c-.09.41-.17.82-.26,1.23"/><path class="cls-67" d="M706,119.1h1.34a.32.32,0,0,1,.32.4l-.26,1.15a.53.53,0,0,1-.49.41h-1.34a.32.32,0,0,1-.32-.41l.26-1.15a.53.53,0,0,1,.49-.4m-.49-.88h2.71a.6.6,0,0,1,.6.77l-.49,2.18a1,1,0,0,1-.93.76h-2.71a.6.6,0,0,1-.6-.76l.48-2.18a1,1,0,0,1,.94-.77"/><path class="cls-67" d="M710.45,119.1h1.34a.31.31,0,0,1,.32.4l-.26,1.15a.53.53,0,0,1-.49.41H710a.32.32,0,0,1-.32-.41l.26-1.15a.53.53,0,0,1,.49-.4m-.49-.88h2.71a.6.6,0,0,1,.6.77l-.48,2.18a1,1,0,0,1-.94.76h-2.71a.6.6,0,0,1-.6-.76L709,119a1,1,0,0,1,.93-.77"/><path class="cls-67" d="M714.51,119.1H716a.32.32,0,0,1,.32.4l-.26,1.15a.53.53,0,0,1-.49.41h-1.53m-.41-2.84h3.25a.6.6,0,0,1,.6.77l-.49,2.18a1,1,0,0,1-.93.76h-3.25Z"/><polyline class="cls-67" points="712.56 123.18 712.98 121.28 714.03 121.28 713.6 123.18"/><path class="cls-67" d="M702.84,121h-1.52a.32.32,0,0,1-.32-.41l.26-1.15a.53.53,0,0,1,.49-.4h1.53m.41,2.83h-3.25a.6.6,0,0,1-.6-.76l.49-2.18a1,1,0,0,1,.93-.77h3.25Z"/><polyline class="cls-67" points="704.79 116.95 704.37 118.85 703.32 118.85 703.75 116.95"/><path class="cls-67" d="M692.56,118.22h2.49a.6.6,0,0,1,.6.77l-.36,1.59h-1l.24-1.08a.32.32,0,0,0-.32-.4h-1.54c-.22,0,0,.18-.07.4l-.24,1.07h-1l.35-1.58a1,1,0,0,1,.93-.77"/><polyline class="cls-67" points="690.98 121.91 691.7 118.69 692.74 118.69 692.02 121.91"/><polyline class="cls-67" points="691.66 118.85 692.08 116.95 693.12 116.95 692.7 118.85"/><polyline class="cls-67" points="693.96 121.91 694.38 120 695.42 120 695 121.91"/><path class="cls-67" d="M696.75,121h1.85l.12-.54h-1.84a.35.35,0,0,0-.33.27.2.2,0,0,0,.2.27h0m2.7.87H696a.6.6,0,0,1-.6-.76l.14-.63h0l0-.13a1,1,0,0,1,.94-.76h2.43l0-.16a.31.31,0,0,0-.3-.39h-2.81l.19-.88h3.49a.6.6,0,0,1,.58.77l-.06.3h0l-.08.36h0l-.41,1.85h0Z"/><path class="cls-34" d="M706,119.1h1.34a.32.32,0,0,1,.32.4l-.26,1.15a.53.53,0,0,1-.49.41h-1.34a.32.32,0,0,1-.32-.41l.26-1.15a.53.53,0,0,1,.49-.4m-.49-.88h2.71a.6.6,0,0,1,.6.77l-.49,2.18a1,1,0,0,1-.93.76h-2.71a.6.6,0,0,1-.6-.76l.48-2.18a1,1,0,0,1,.94-.77"/><path class="cls-34" d="M710.45,119.1h1.34a.31.31,0,0,1,.32.4l-.26,1.15a.53.53,0,0,1-.49.41H710a.32.32,0,0,1-.32-.41l.26-1.15a.53.53,0,0,1,.49-.4m-.49-.88h2.71a.6.6,0,0,1,.6.77l-.48,2.18a1,1,0,0,1-.94.76h-2.71a.6.6,0,0,1-.6-.76L709,119a1,1,0,0,1,.93-.77"/><path class="cls-34" d="M714.51,119.1H716a.32.32,0,0,1,.32.4l-.26,1.15a.53.53,0,0,1-.49.41h-1.53m-.41-2.84h3.25a.6.6,0,0,1,.6.77l-.49,2.18a1,1,0,0,1-.93.76h-3.25Z"/><polyline class="cls-34" points="712.56 123.18 712.98 121.28 714.03 121.28 713.6 123.18"/><path class="cls-34" d="M702.84,121h-1.52a.32.32,0,0,1-.32-.41l.26-1.15a.53.53,0,0,1,.49-.4h1.53m.41,2.83h-3.25a.6.6,0,0,1-.6-.76l.49-2.18a1,1,0,0,1,.93-.77h3.25Z"/><polyline class="cls-34" points="704.79 116.95 704.37 118.85 703.32 118.85 703.75 116.95"/><path class="cls-34" d="M692.56,118.22h2.49a.6.6,0,0,1,.6.77l-.36,1.59h-1l.24-1.08a.32.32,0,0,0-.32-.4h-1.54c-.22,0,0,.18-.07.4l-.24,1.07h-1l.35-1.58a1,1,0,0,1,.93-.77"/><polyline class="cls-34" points="690.98 121.91 691.7 118.69 692.74 118.69 692.02 121.91"/><polyline class="cls-34" points="691.66 118.85 692.08 116.95 693.12 116.95 692.7 118.85"/><polyline class="cls-34" points="693.96 121.91 694.38 120 695.42 120 695 121.91"/><path class="cls-34" d="M696.75,121h1.85l.12-.54h-1.84a.35.35,0,0,0-.33.27.2.2,0,0,0,.2.27h0m2.7.87H696a.6.6,0,0,1-.6-.76l.14-.63h0l0-.13a1,1,0,0,1,.94-.76h2.43l0-.16a.31.31,0,0,0-.3-.39h-2.81l.19-.88h3.49a.6.6,0,0,1,.58.77l-.06.3h0l-.08.36h0l-.41,1.85h0Z"/><path class="cls-68" d="M682.21,119.63l-.13.34-.31.32c-.12.11-.15.11-.12.27a1,1,0,0,0,.29.56c.18.18.55.43.82.31a1.57,1.57,0,0,1-.1.28c-.18.39.26.47.57.55s.87.25,1-.08a1,1,0,0,0,0-.38,1.51,1.51,0,0,1,.17-.3c.09-.13.08-.18.06-.35s0-.06,0-.1a3.79,3.79,0,0,0,.89,0l-.3.16c-.28.14,0,.57.1.76.26.39.49.67.92.43.15-.08.16-.16.25-.3a4.87,4.87,0,0,0,.46-.37c.06.07.17.09.34.1h.51c.26,0,.42,0,.44-.31a.42.42,0,0,0-.06-.29l0-.45a1,1,0,0,0-.1-.44c-.06-.14-.09-.26-.16-.4a1,1,0,0,1,0-.17l.27.26a.71.71,0,0,0,.57.28.76.76,0,0,0,.67-.49l.08-.26a2,2,0,0,0,1.25-.13,1.74,1.74,0,0,0,.83-1.44,3.69,3.69,0,0,0-.27-1.74c-.07-.13-.38-.3-.51-.16s-.17.26-.28.35a1.28,1.28,0,0,1-.28.15,1.74,1.74,0,0,0-.3-.49,1.06,1.06,0,0,0-.33-.26,7.34,7.34,0,0,1-.69-.56,1.88,1.88,0,0,0-2.22-.2,2,2,0,0,0-.88.77.63.63,0,0,0-.44.19,3.51,3.51,0,0,0-.34.33,3.34,3.34,0,0,0-1.9.77,2.34,2.34,0,0,0-.51.67,1.16,1.16,0,0,1-.38.32c-.11,0-.11,0-.15-.06.13-.1.13-.28.14-.45.08,0,.11.1.17.17,0-.15,0-.38-.1-.46l.08-.21c-.23,0-1,.57-.59,1a.8.8,0,0,0,.08.26.38.38,0,0,0,.5.16,2.5,2.5,0,0,0,0,.85c0,.08,0,.17,0,.26"/><path class="cls-69" d="M682.26,119.62v0h0m0-.14s0,.08,0,.13l-.1,0a.68.68,0,0,1,0-.14Zm0-.13s0,.09,0,.13h-.1s0-.09,0-.13Zm0-.46a3.86,3.86,0,0,0,0,.46h-.11a3.84,3.84,0,0,1,0-.47Zm0-.37a2.07,2.07,0,0,0,0,.37h-.1a2.34,2.34,0,0,1,0-.39Zm-.07-.06.09,0,0,.09h0Zm-.27,0a.42.42,0,0,0,.27,0l0,.1a.53.53,0,0,1-.33,0Zm-.16-.15a.29.29,0,0,0,.16.15l0,.1a.39.39,0,0,1-.23-.21Zm0-.11,0,.11-.1,0,0-.12Zm0-.14,0,.14-.1,0s0-.09,0-.15Zm0,0,0,0h0Zm-.1-.17a.31.31,0,0,0,.1.17l-.07.08a.39.39,0,0,1-.13-.23Zm0-.2a.35.35,0,0,0,0,.2l-.1,0a.39.39,0,0,1,0-.26Zm.15-.19a1.25,1.25,0,0,0-.15.19l-.09,0a.69.69,0,0,1,.16-.22Zm.48-.31a1.05,1.05,0,0,0-.48.31l-.08-.07a1.26,1.26,0,0,1,.55-.35Zm0-.11h.08l0,.08,0,0Zm-.09.16,0-.12.1,0a.69.69,0,0,0,0,.13Zm0,.08a.41.41,0,0,1,0-.08l.1,0,0,.08Zm0,.07,0,0,0-.05,0,0Zm.09.13a.16.16,0,0,0-.09-.13l0-.09a.27.27,0,0,1,.14.19Zm0,.26a.75.75,0,0,0,0-.26l.1,0a.68.68,0,0,1,0,.32Zm.1,0,0,.1-.07-.08,0,0Zm0-.1,0,.05-.08.07-.05-.06Zm-.17-.13c.09,0,.13.06.17.13l-.09.06s0-.09-.08-.09Zm-.05,0v0h.05v0Zm0,.05v-.05h.1v.05Zm-.12.35c.1-.07.11-.21.12-.35h.1a.53.53,0,0,1-.16.44Zm0,.06v0l0,0,0,0Zm.08.12s-.05,0-.08-.12l.1,0s0,0,0,0Zm0,0h0l0,0Zm.14,0a.26.26,0,0,1-.14,0l0-.1.06,0Zm0,0h0l0,0Zm.22-.15a1.07,1.07,0,0,1-.22.15l0-.1a.59.59,0,0,0,.19-.13Zm.18-.19-.18.19-.07-.08.18-.18Zm0,0h0l0,0Zm.21-.34a2.39,2.39,0,0,0-.21.34l-.09,0a2.56,2.56,0,0,1,.22-.35Zm.29-.31a2.81,2.81,0,0,0-.29.31l-.08-.06a2.27,2.27,0,0,1,.3-.32Zm.82-.51a3,3,0,0,0-.82.51l-.07-.07a2.79,2.79,0,0,1,.85-.53Zm1-.25a5.8,5.8,0,0,0-1,.25l0-.09a5.41,5.41,0,0,1,1.07-.26Zm0,0h0v-.05Zm.17-.17-.17.17-.07-.08.17-.17Zm0,0h0l0,0Zm.18-.17-.18.17-.07-.08.18-.16Zm.2-.13a.83.83,0,0,0-.2.13l-.07-.07a.88.88,0,0,1,.23-.16Zm.2,0-.2,0,0-.1a.62.62,0,0,1,.23,0Zm0,0,0,0h0v0Zm.37-.44a3.42,3.42,0,0,0-.37.44l-.09-.06a3,3,0,0,1,.39-.46Zm.49-.31a2,2,0,0,0-.49.31l-.07-.08a1.78,1.78,0,0,1,.52-.33Zm1.15-.26a2.69,2.69,0,0,0-1.15.26l0-.1a2.61,2.61,0,0,1,1.2-.26Zm1,.45a1.71,1.71,0,0,0-1-.45v-.1a1.73,1.73,0,0,1,1.07.47Zm.2.18-.2-.18.06-.08c.07,0,.14.12.21.18Zm.5.38a3.86,3.86,0,0,1-.5-.38l.07-.08a5.58,5.58,0,0,0,.48.37Zm.17.12-.17-.12.05-.09.18.12Zm.14.13a.83.83,0,0,0-.14-.13l.06-.09a1.14,1.14,0,0,1,.16.15Zm.16.23a1.88,1.88,0,0,0-.16-.23l.08-.07.17.24Zm.13.25a1.17,1.17,0,0,0-.13-.25l.09-.06a1.71,1.71,0,0,1,.14.27Zm.07,0-.05,0,0,0,.05,0Zm0,0,0,0,0-.1,0,0Zm.25-.14a.79.79,0,0,1-.25.14l0-.1a.68.68,0,0,0,.22-.12Zm.17-.2a.82.82,0,0,1-.17.2l-.07-.08a.68.68,0,0,0,.15-.18Zm.12-.15a.57.57,0,0,0-.12.15l-.09-.06a1.09,1.09,0,0,1,.13-.17Zm0,0a0,0,0,0,0,0,0l-.08-.08,0,0Zm.18,0a.22.22,0,0,0-.18,0l-.05-.1a.33.33,0,0,1,.26,0Zm.18.11a.78.78,0,0,0-.18-.11l0-.1a.49.49,0,0,1,.22.14Zm0,0,0,0,.07-.07a.19.19,0,0,1,.06.07Zm.23.78a2.66,2.66,0,0,0-.23-.78l.09,0a2.94,2.94,0,0,1,.24.82Zm0,.93a3.77,3.77,0,0,0,0-.93h.1a3.48,3.48,0,0,1,0,1Zm-.26.87a2.15,2.15,0,0,0,.26-.87h.1a2.3,2.3,0,0,1-.27.91Zm0,0h0l0,0Zm-.55.53a1.34,1.34,0,0,0,.55-.53l.09,0a1.5,1.5,0,0,1-.59.58Zm-.54.16a1.41,1.41,0,0,0,.54-.16l.05.1a1.78,1.78,0,0,1-.58.17Zm-.67,0a2.48,2.48,0,0,0,.67,0v.11a2.7,2.7,0,0,1-.7,0Zm-.06,0v0h.05v0Zm0,.14,0-.14.1,0,0,.14Zm0,.12,0-.12.1,0,0,.12Zm-.24.31a.71.71,0,0,0,.24-.31l.1,0a.74.74,0,0,1-.27.36Zm-.38.14a.68.68,0,0,0,.38-.14l.07.08a.83.83,0,0,1-.44.17Zm-.29-.07a.45.45,0,0,0,.29.07v.11a.61.61,0,0,1-.35-.09ZM688,120a1.46,1.46,0,0,0,.25.2l0,.09a1.09,1.09,0,0,1-.27-.22Zm-.11-.11.11.11-.07.07-.11-.11Zm-.16-.15.16.15-.07.07-.16-.15Zm-.08,0v-.11l.07.08,0,0Zm0,.09a.31.31,0,0,1,0-.09h.1s0,.06,0,.09Zm0,.08s0-.06,0-.08h.1s0,.06,0,.09Zm0,0v0h.06Zm.1.25a2.6,2.6,0,0,0-.1-.25l.09,0a1.45,1.45,0,0,1,.11.26Zm.1,0h0l0,0Zm0,.19-.06-.16.1,0,.06.15Zm.08.21-.08-.21.1,0c0,.09.06.15.08.22Zm0,.21a1.25,1.25,0,0,0,0-.21l.1,0a1.75,1.75,0,0,1,0,.24Zm0,.23v-.23H688V121Zm0,.22V121h.1v.23Zm0,0v0H688Zm.06.12a.66.66,0,0,0-.06-.12l.09,0a.4.4,0,0,1,.07.15Zm0,.13v-.13l.1,0a.42.42,0,0,1,0,.16Zm-.11.23a.27.27,0,0,0,.11-.23h.1a.33.33,0,0,1-.15.31Zm-.28,0a.69.69,0,0,0,.28,0l.06.09a.6.6,0,0,1-.34,0Zm-.1,0h.1v.1h-.1Zm-.41,0h.41v.1h-.41Zm-.2,0,.2,0v.11a1.17,1.17,0,0,1-.22,0Zm-.1-.05.1.05,0,.1a.27.27,0,0,1-.16-.08Zm-.07,0,0,0,0,0,0,0Zm-.17.14.17-.14.06.08-.16.14Zm-.29.23.29-.23.07.08a3,3,0,0,1-.31.24Zm0,0h0l0,0Zm-.07.11.07-.11.08.06-.06.1Zm-.16.17a.37.37,0,0,0,.16-.17l.09,0a.46.46,0,0,1-.2.22Zm-.48,0a.47.47,0,0,0,.48,0l.05.1a.55.55,0,0,1-.58,0Zm-.37-.44a1.53,1.53,0,0,0,.37.44l0,.09a1.61,1.61,0,0,1-.41-.47Zm-.2-.38a1.5,1.5,0,0,0,.2.38l-.09.06a2.23,2.23,0,0,1-.21-.41Zm.07-.31c-.11.06-.11.18-.07.31l-.1,0c0-.17,0-.34.12-.43Zm0,0h0l0-.09h0Zm.27-.15-.27.15-.05-.09.27-.15Zm0-.1,0,.1,0,0Zm-.44,0a3.15,3.15,0,0,0,.44,0v.11a3.4,3.4,0,0,1-.45,0Zm-.44,0,.44,0v.11a3.42,3.42,0,0,1-.45,0Zm-.06.06V121h.07v0Zm0,0v0l.11,0v0Zm0,0v0l.11,0v.06Zm0,.17a1.23,1.23,0,0,0,0-.17h.1a.7.7,0,0,1,0,.2Zm-.07.14a.45.45,0,0,0,.07-.14l.1,0a.45.45,0,0,1-.08.18Zm0,0,0,0,.09.06,0,0Zm-.15.27a1.16,1.16,0,0,1,.15-.27l.09.06a1,1,0,0,0-.15.26Zm0,0v0l.05,0Zm0,.17a1.09,1.09,0,0,0,0-.17h.11a.6.6,0,0,1,0,.19Zm0,.19c0-.08,0-.13,0-.19h.1a.81.81,0,0,1,0,.2Zm-.37.15c.18,0,.34,0,.37-.15l.11,0c-.06.2-.26.25-.48.23Zm-.53-.11a2.87,2.87,0,0,0,.53.11v.1a2.41,2.41,0,0,1-.56-.11Zm-.07,0,.07,0,0,.1-.07,0Zm-.31-.1a2.26,2.26,0,0,0,.31.1l0,.1-.33-.1Zm-.15-.36a.24.24,0,0,0,.15.36l-.05.1a.34.34,0,0,1-.2-.5Zm.06-.14-.06.14-.1,0,.06-.14Zm0-.15s0,.1,0,.15l-.1,0,0-.13Zm-.07-.06.1,0,0,.1h0Zm-.33,0a.42.42,0,0,0,.33,0l0,.1a.53.53,0,0,1-.41,0Zm-.43-.29a1.41,1.41,0,0,0,.43.29l0,.1a1.48,1.48,0,0,1-.46-.31Zm-.18-.24a.8.8,0,0,0,.18.24l-.07.08a1.17,1.17,0,0,1-.2-.27Zm-.1-.28a1.19,1.19,0,0,0,.1.28l-.09,0a1,1,0,0,1-.11-.32Zm.07-.2c-.07.07-.09.08-.07.2h-.1c0-.17,0-.19.09-.28Zm0,0,0,0-.08-.07,0,0Zm.15-.15-.15.15-.07-.08.15-.15Zm.17-.17-.17.17-.07-.08.17-.16Zm0,0v0l0,0Zm.08-.21-.08.21-.1,0,.08-.21Zm0-.14,0,.14-.1,0,0-.14Z"/><polygon class="cls-34" points="684.9 116.46 684.2 116.58 683.57 116.85 683.03 117.19 682.52 117.81 682.23 118.12 681.96 118.22 681.88 118.04 682.01 117.86 682.04 117.59 682.13 117.6 682.22 117.68 682.19 117.42 682.09 117.35 682.09 117.24 681.85 117.38 681.62 117.65 681.57 117.89 681.67 118.08 681.76 118.4 681.94 118.48 682.13 118.47 682.32 118.37 682.19 118.98 682.32 119.67 682.18 119.98 681.74 120.46 681.82 120.74 682.03 121.06 682.42 121.34 682.63 121.37 682.86 121.37 682.71 121.96 683.24 122.18 683.9 122.27 684.13 122.12 684.14 121.72 684.39 121.31 684.41 120.98 685.02 121.02 685.58 120.97 685.02 121.31 685.11 121.71 685.47 122.27 685.81 122.41 686.09 122.3 686.2 122.08 686.78 121.64 686.9 121.73 687.81 121.77 687.99 121.62 688 121.36 687.95 121.25 687.9 120.54 687.6 119.94 687.65 119.67 687.83 119.76 688.34 120.24 688.59 120.26 688.87 120.14 689.15 119.94 689.29 119.49 690.1 119.54 690.6 119.35 690.99 118.98 691.28 118.44 691.35 117.81 691.29 117.07 691.13 116.41 690.98 116.2 690.76 116.14 690.38 116.55 690.03 116.67 689.73 116.17 689.43 115.89 689.26 115.79 688.6 115.24 688.08 114.96 687.55 114.91 686.93 115.02 686.39 115.22 686.02 115.52 685.73 115.88 685.42 115.96 684.9 116.46"/><polygon class="cls-70" points="684.9 116.46 684.2 116.58 683.57 116.85 683.03 117.19 682.52 117.81 682.23 118.12 681.96 118.22 681.88 118.04 682.01 117.86 682.04 117.59 682.13 117.6 682.22 117.68 682.19 117.42 682.09 117.35 682.09 117.24 681.85 117.38 681.62 117.65 681.57 117.89 681.67 118.08 681.76 118.4 681.94 118.48 682.13 118.47 682.32 118.37 682.19 118.98 682.32 119.67 682.18 119.98 681.74 120.46 681.82 120.74 682.03 121.06 682.42 121.34 682.63 121.37 682.86 121.37 682.71 121.96 683.24 122.18 683.9 122.27 684.13 122.12 684.14 121.72 684.39 121.31 684.41 120.98 685.02 121.02 685.58 120.97 685.02 121.31 685.11 121.71 685.47 122.27 685.81 122.41 686.09 122.3 686.2 122.08 686.78 121.64 686.9 121.73 687.81 121.77 687.99 121.62 688 121.36 687.95 121.25 687.9 120.54 687.6 119.94 687.65 119.67 687.83 119.76 688.34 120.24 688.59 120.26 688.87 120.14 689.15 119.94 689.29 119.49 690.1 119.54 690.6 119.35 690.99 118.98 691.28 118.44 691.35 117.81 691.29 117.07 691.13 116.41 690.98 116.2 690.76 116.14 690.38 116.55 690.03 116.67 689.73 116.17 689.43 115.89 689.26 115.79 688.6 115.24 688.08 114.96 687.55 114.91 686.93 115.02 686.39 115.22 686.02 115.52 685.73 115.88 685.42 115.96 684.9 116.46"/><path class="cls-66" d="M681.17,118.07a1.38,1.38,0,0,1,.46-1,.84.84,0,0,0-.46,1m6.2-1.25a.81.81,0,0,1,.5-.63c-.47.12-.56.32-.5.63m2.67,0a.49.49,0,0,0,.34,0,1.11,1.11,0,0,0,.52-.53.79.79,0,0,1-.49.6.49.49,0,0,1-.37,0m-3.58-.57a3.22,3.22,0,0,1-.5.16,1.06,1.06,0,0,0-.28.57.56.56,0,0,1,.07-.51.59.59,0,0,0-.11.08,3.44,3.44,0,0,0-.47.89,3,3,0,0,1,.4-1,.33.33,0,0,1,.31-.13l.58-.06m1.44,1.12a.31.31,0,0,1,0-.13.92.92,0,0,1-.25.15,5.84,5.84,0,0,1,.4-.44c.13-.09.32-.07.47-.14l-.19.12a.35.35,0,0,1,.18.16.23.23,0,0,1,0,.11.86.86,0,0,1,.3,0,1.77,1.77,0,0,0-.87.56.69.69,0,0,1,.1-.19.29.29,0,0,1-.14-.15m2-.74.06.08h0l0-.07h0m-7.58,3.3a4.5,4.5,0,0,0,.54,1.15h0a.44.44,0,0,1-.06.16c-.16.21-.57-.1-.69-.22a.79.79,0,0,1-.23-.44c0-.1,0-.11.07-.18l.3-.31.07-.17m.06-1.8-.09.24v0c-.15.07-.36.11-.44-.06a1.58,1.58,0,0,1-.09-.26c-.26-.26.13-.62.34-.74l-.07.16c-.06.22,0,.42-.17.58.1.19.09.27.31.18a.69.69,0,0,0,.22-.14m-.26-.55a.14.14,0,0,1,.1,0c0-.08,0-.13-.08-.16v0s0,0,0,.08m5.58,2.62c0,.19-.12.37-.19.57a2.83,2.83,0,0,1-.56.9s.1,0,.22,0h.5c.18,0,.25,0,.27-.22a.27.27,0,0,0,0-.21v-.48a1,1,0,0,0-.1-.38c0-.08,0-.16-.08-.24m-.89,1.57a4.87,4.87,0,0,1-.46.37c-.09.14-.1.22-.25.3-.43.24-.66,0-.92-.43-.12-.19-.38-.62-.1-.76l.3-.16a3.79,3.79,0,0,1-.89,0s0,.07,0,.1,0,.22-.06.35a1.51,1.51,0,0,0-.17.3,1,1,0,0,1,0,.38c-.09.33-.71.15-1,.08s-.75-.16-.57-.55a1.57,1.57,0,0,0,.1-.28c-.27.12-.64-.13-.82-.31a1,1,0,0,1-.29-.56c0-.16,0-.16.12-.27l.31-.32.13-.34c0-.09,0-.18,0-.26a2.5,2.5,0,0,1,0-.85.38.38,0,0,1-.5-.16.8.8,0,0,1-.08-.26c-.42-.4.36-.93.59-1l-.08.21c.15.08.13.31.1.46-.06-.07-.09-.17-.17-.17,0,.17,0,.35-.14.45,0,.1,0,.1.15.06a1.16,1.16,0,0,0,.38-.32,2.34,2.34,0,0,1,.51-.67,3.34,3.34,0,0,1,1.9-.77,3.51,3.51,0,0,1,.34-.33.63.63,0,0,1,.44-.19,2,2,0,0,1,.88-.77,1.88,1.88,0,0,1,2.22.2,7.34,7.34,0,0,0,.69.56,1.06,1.06,0,0,1,.33.26,1.74,1.74,0,0,1,.3.49,1.28,1.28,0,0,0,.28-.15c.11-.09.18-.25.28-.35s.44,0,.51.16a3.69,3.69,0,0,1,.27,1.74,1.74,1.74,0,0,1-.83,1.44,2,2,0,0,1-1.25.13l-.08.26a.76.76,0,0,1-.67.49A.71.71,0,0,1,688,120l-.27-.26a1,1,0,0,0,0,.17c.07.14.1.26.16.4a1,1,0,0,1,.1.44l0,.45a.42.42,0,0,1,.06.29c0,.29-.18.31-.44.31h-.51c-.17,0-.28,0-.34-.1m-1-.55,0-.15a2.26,2.26,0,0,1,0-.26l0-.27c0,.09-.08.18-.11.28a.29.29,0,0,0,0,.09,3.07,3.07,0,0,1-1.17,0,3.53,3.53,0,0,0-.08-.4c0,.12,0,.46,0,.64a.5.5,0,0,1-.08.32,2.55,2.55,0,0,0-.2.34.87.87,0,0,1,0,.32c-.06.19-.61,0-.75,0s-.55-.12-.45-.36A3.18,3.18,0,0,0,683,121a3.87,3.87,0,0,1-.69-1.68,2.14,2.14,0,0,1,.08-1,2.47,2.47,0,0,1,.7-1.09,2.68,2.68,0,0,1,1.57-.67c-.17.18-.33.37-.5.58a2.5,2.5,0,0,0-.39.64.52.52,0,0,0,.05.71,1.8,1.8,0,0,1,.35.58,1.23,1.23,0,0,0-.11.42,1.35,1.35,0,0,0,.59.45.73.73,0,0,0,.56-.06,3,3,0,0,1,1.25-.49,2.26,2.26,0,0,0,.09-1.47,7.23,7.23,0,0,1-.12-1,2.65,2.65,0,0,0,0,1,2,2,0,0,1-.07,1.3,3.25,3.25,0,0,0-1.16.48.59.59,0,0,1-.47,0c-.16,0-.26-.14-.43-.34a.87.87,0,0,1,.13-.46c.14-.28.3-.54.47-.82a9.25,9.25,0,0,0-.58.73,1.76,1.76,0,0,0-.3-.48.4.4,0,0,1-.06-.52,2.28,2.28,0,0,1,.4-.64c.32-.35.62-.75,1-1.09a.72.72,0,0,1,.53-.23c.23,0,.46-.08.7-.13-.23,0-.45,0-.68,0h0a1.57,1.57,0,0,1,.7-.59,1.75,1.75,0,0,1,2.13.16c.18.15.33.3.52.43a.48.48,0,0,0-.2,0,1,1,0,0,1,.29,0l.08,0a.85.85,0,0,1,.29.24,2.22,2.22,0,0,1,.23.39l-.11,0s0,0-.08,0a.26.26,0,0,0-.15,0h0a.84.84,0,0,1-.25.09.29.29,0,0,0,.16,0h0a.3.3,0,0,0,0,.1.31.31,0,0,0,0,.13h0l0,0-.11,0a1.49,1.49,0,0,1,.47,0l0,.16h-.06a.28.28,0,0,0-.27,0c-.36.08-.27.27-.43.57.16-.21.15-.42.42-.48.07,0,.11,0,.15,0a.37.37,0,0,0-.17.18c-.07.21,0,.39-.11.58.1-.17.11-.35.2-.53a.38.38,0,0,1,.23-.18h.06a1.29,1.29,0,0,1,0,.33,4.55,4.55,0,0,1-.08.54,1.71,1.71,0,0,0,.17-.54,1.78,1.78,0,0,0,0-.61c0-.27.22-.22.39-.35s.2-.25.31-.35.28.05.32.15a3.86,3.86,0,0,1,.22,1.6,1.71,1.71,0,0,1-.75,1.31,2.22,2.22,0,0,1-1.8-.07,1.51,1.51,0,0,1-.31-.16.74.74,0,0,1,0,.39c-.06.21-.16.55.12.61a.38.38,0,0,0,.31-.06.63.63,0,0,1-.27,0,.18.18,0,0,1-.14-.12l.15,0a.36.36,0,0,0,.44-.2,1,1,0,0,1,.07-.24l.13,0-.08.25a.61.61,0,0,1-.55.39.83.83,0,0,1-.5-.27l-.29-.26a2.32,2.32,0,0,1-.72-.36,1.32,1.32,0,0,0,.54.42,5.6,5.6,0,0,1-.27,1,3.37,3.37,0,0,1-.54.84c-.07,0-.55.44-.63.49s-.13.21-.23.26c-.3.16-.5-.14-.66-.4s-.28-.46-.1-.56a5.06,5.06,0,0,0,.44-.26,1.13,1.13,0,0,0,.1.13m-4.66-3.5a1,1,0,0,1,.22-.46.39.39,0,0,0-.22.46m4.45-2.17a1.4,1.4,0,0,1,.8-.78c-.49.12-.64.21-.8.78m0-.39a1,1,0,0,1,.37-.35c-.25.06-.3.1-.37.35m2.8,3.83.21-.1-.21,0c-.16,0-.17.06-.2.21l0,.22a1.73,1.73,0,0,1,.1-.24c0-.08,0-.09.13-.13"/><path class="cls-34" d="M688,117.42a.14.14,0,0,1,.07-.18.14.14,0,0,1,.18.06v0a.91.91,0,0,0-.17.17.18.18,0,0,1-.08-.07"/><path class="cls-34" d="M689.46,116.84a.09.09,0,0,1,.11-.09.1.1,0,0,1,.09.11s0,0,0,0l-.15,0a.11.11,0,0,1,0-.09"/></g></g></g><g id="Inteligentny_obiekt_wektorowy-5" data-name="Inteligentny obiekt wektorowy"><g class="cls-71"><g class="cls-71"><path class="cls-2" d="M603.33,139a2,2,0,0,0-1.44.65L601,139a2.73,2.73,0,0,0,.17-.83,2.53,2.53,0,0,0-.13-.83l.92-.65a1.91,1.91,0,1,0-.48-1.26,2.33,2.33,0,0,0,.09.57l-.92.6a2.66,2.66,0,0,0-1.52-.91v-1a1.92,1.92,0,0,0,1.52-1.87,2,2,0,0,0-2-2,1.92,1.92,0,0,0-.44,3.78v1.09a2.55,2.55,0,0,0-2,2.48,2.48,2.48,0,0,0,2.09,2.44v1.17a1.91,1.91,0,1,0,.78,0v-1.17a2.6,2.6,0,0,0,1.52-.87l.92.65a1.89,1.89,0,0,0-.09.52,1.92,1.92,0,1,0,3.83,0,1.86,1.86,0,0,0-1.87-1.91m0-4.48a1,1,0,1,1-1,.95,1,1,0,0,1,1-.95m-5.61-1.79a1,1,0,0,1,1.91,0,1,1,0,1,1-1.91,0m1.87,11a1,1,0,1,1-1-1,1,1,0,0,1,1,1m-1-4.22a1.31,1.31,0,1,1,1.31-1.31,1.29,1.29,0,0,1-1.31,1.31m4.7,2.39a1,1,0,1,1,1-1,1,1,0,0,1-1,1"/></g></g></g><g id="Inteligentny_obiekt_wektorowy-6" data-name="Inteligentny obiekt wektorowy"><g class="cls-72"><g class="cls-72"><path class="cls-2" d="M636,136.86l1.82.51s0-.07,0-.09c-.14-.28-.29-.56-.44-.84l-.56-1.06c-.07-.13-.06-.16.08-.33s.55-.64.83-1l.61-.72a1.83,1.83,0,0,0,.13-.16v0l-.48.12-1.53.41-.4.1a.11.11,0,0,1-.14,0l-1.1-1.85-.06-.08h0c0,.11,0,.22-.07.33l-.33,1.87s0,0,0,0c0,.24,0,.24-.27.31l-1.81.57-.45.14v0l1.9.76-.57.37-.68.44a.11.11,0,0,1-.11,0c-.5-.21-1-.43-1.48-.66a1.28,1.28,0,0,1-.63-.56.67.67,0,0,1,.1-.81,1.49,1.49,0,0,1,.59-.36l2-.65a3.37,3.37,0,0,1,.34-.1.13.13,0,0,0,.11-.12c.06-.35.12-.7.19-1.06s.16-.89.26-1.34a1.15,1.15,0,0,1,.43-.69.62.62,0,0,1,.79,0,1.3,1.3,0,0,1,.41.46l1,1.6c.13.22.12.22.34.16l1.44-.37c.4-.11.81-.22,1.22-.31a.66.66,0,0,1,.75.36.63.63,0,0,1-.09.55,4.62,4.62,0,0,1-.37.5l-.72.86-.8.93s0,.06-.07.08-.06.15,0,.23c.15.27.3.54.44.82.23.43.46.86.67,1.3a.82.82,0,0,1-.67,1.17,1.85,1.85,0,0,1-.81-.14l-1.43-.43s-.06-.05-.06-.07c-.07-.39-.13-.78-.2-1.19"/><path class="cls-2" d="M618.59,142.68c0,.33-.09.67-.13,1s-.07.55-.11.83c0,0-.05.07-.07.07h-1c0-.16,0-.31,0-.46l.18-1.31c.06-.43.11-.85.17-1.28s.09-.68.13-1a3,3,0,0,1,.64-1.47,3,3,0,0,1,1.78-1.1,2.31,2.31,0,0,1,2.29.68,2.13,2.13,0,0,1,.55,1.23,3,3,0,0,1-2.54,3.25,2.38,2.38,0,0,1-1.83-.4l0,0h0m3.32-2.27A1.3,1.3,0,0,0,620.4,139a1.76,1.76,0,0,0-1.49,1.43,1.28,1.28,0,0,0,.72,1.43,1.39,1.39,0,0,0,1.27,0,1.66,1.66,0,0,0,1-1.43"/><path class="cls-2" d="M614.12,141.09a5.16,5.16,0,0,0,.24.47.88.88,0,0,0,1.35.19.67.67,0,0,0,.13-1,8.39,8.39,0,0,0-.56-.63,8.09,8.09,0,0,1-.9-1,1.64,1.64,0,0,1,.08-2.07,2.32,2.32,0,0,1,1.48-.89,1.79,1.79,0,0,1,1.45.33,2.58,2.58,0,0,1,.63.72l-1.1.82a3.52,3.52,0,0,0-.27-.37.79.79,0,0,0-.65-.31.72.72,0,0,0-.5.2.45.45,0,0,0-.07.64,5.27,5.27,0,0,0,.43.51c.29.32.6.62.89.94a1.94,1.94,0,0,1,.54,1,2.08,2.08,0,0,1-.24,1.32,2.48,2.48,0,0,1-2,1.3,2.33,2.33,0,0,1-1-.1,1.57,1.57,0,0,1-1-.85,3.83,3.83,0,0,1-.17-.43.08.08,0,0,1,0-.08l1.15-.62"/><path class="cls-2" d="M628.45,143h-1.1c0-.22,0-.43.08-.64.07-.55.15-1.09.21-1.64a1.93,1.93,0,0,0-.17-1.08,1.1,1.1,0,0,0-.91-.63,1.75,1.75,0,0,0-1.88,1.31,1.31,1.31,0,0,0,1.64,1.63,1.66,1.66,0,0,0,.79-.43l.08-.07c0,.17,0,.32-.06.47s-.07.58-.12.87a.13.13,0,0,1-.06.09,2.51,2.51,0,0,1-2.74-.35,2.11,2.11,0,0,1-.69-1.34,2.87,2.87,0,0,1,1.05-2.58,2.92,2.92,0,0,1,1.47-.7A2.3,2.3,0,0,1,628.5,139a2.23,2.23,0,0,1,.28,1.45c-.08.66-.16,1.31-.25,2,0,.2,0,.39-.08.6"/><path class="cls-2" d="M633.58,139.25l2-2.26c0,.12,0,.22.06.33,0,.26.09.53.14.8a.17.17,0,0,1-.05.15l-1.31,1.38c-.05,0-.05.08,0,.14.74,1,1.48,2.09,2.23,3.13l.06.1h-.26c-.37,0-.74,0-1.1,0a.2.2,0,0,1-.2-.11c-.56-.86-1.13-1.72-1.7-2.58l-.06-.08a.83.83,0,0,0,0,.13c-.11.85-.22,1.71-.34,2.56a.09.09,0,0,1-.06.07c-.39,0-.77,0-1.16,0h0c0-.17,0-.35.07-.52l.21-1.68.24-1.75c.06-.44.11-.88.17-1.32,0-.18,0-.36.07-.54a.16.16,0,0,1,0-.08l1.28-.83h0l-.39,3h0"/><path class="cls-2" d="M631.9,138c0,.4-.1.78-.15,1.16h-.82a.43.43,0,0,0-.31.35c-.08.56-.15,1.11-.22,1.66s-.13,1-.2,1.47c0,.12,0,.24-.05.36H629c0-.21,0-.41.08-.61,0-.39.1-.78.16-1.18s.11-.88.17-1.31c0-.21.05-.42.09-.62A1.6,1.6,0,0,1,630.8,138c.36,0,.72,0,1.1,0"/></g></g></g><path id="path22" class="cls-34" d="M670.22,119.65l-.27-.41a3.74,3.74,0,0,1-.27-.42,4,4,0,0,1-.43-1c-.16-.62.23-1,.57-1.42l.17-.18c.36-.38.85-.83,1.23-1.2a2.07,2.07,0,0,0,.66-1.41c0-.32,0-1-.26-1.13a2.21,2.21,0,0,1-.11,1.29,3,3,0,0,1-1,1.23c-.35.27-.92.76-1.22,1a2.79,2.79,0,0,0-.65.83,1,1,0,0,0,.21,1.12,5,5,0,0,0,.32.44c.12.16.24.28.34.41s.24.26.36.39a4.48,4.48,0,0,0,.37.38"/><path id="path24" class="cls-34" d="M674.34,123.77c.14.21,0,.31-.18.39a18.36,18.36,0,0,1-4.5.48,13.63,13.63,0,0,1-2.64-.18c-.14,0-.76-.12-.79-.28s.09-.18.15-.21a2.65,2.65,0,0,1,.81-.26,2.34,2.34,0,0,0,.3,0,3.13,3.13,0,0,0-2,.57c-.18.26.13.38.33.45A15.11,15.11,0,0,0,669,125c1.25,0,4.25,0,5.35-.76.07,0,.2-.13.21-.22s-.12-.22-.19-.24"/><path id="path26" class="cls-34" d="M670.74,120.16a3.18,3.18,0,0,0,.63-.48,1.23,1.23,0,0,0,.4-.72,1.69,1.69,0,0,0-.3-.82c-.37-.56-.66-.88-.16-1.51a4.1,4.1,0,0,1,.56-.54c.26-.21.68-.5,1-.69l.34-.22a7.62,7.62,0,0,0-.84.29,6,6,0,0,0-.77.36c-.76.44-1.5,1.13-1.2,2.08.21.64.81,1,.77,1.51a2,2,0,0,1-.4.74"/><path id="path28" class="cls-34" d="M672.33,123.3a3.3,3.3,0,0,1-.62-.32c-.12-.07-.08-.06-.23,0a10,10,0,0,1-2.32.14c-.17,0-.65,0-.75-.18s0-.17.06-.23c-.44.09-.88.45-.27.75a5.84,5.84,0,0,0,2.85.21,9.08,9.08,0,0,0,1.28-.34"/><path id="path30" class="cls-34" d="M672.53,121.88a1.16,1.16,0,0,1-.45-.26c-.1-.08-.07-.06-.27,0a11.46,11.46,0,0,1-3.59.08c-.09,0-.18-.09-.19-.18s.09-.18.14-.24c-.51.06-1,.55-.32.78a9.31,9.31,0,0,0,3.25.17,7.86,7.86,0,0,0,1.43-.33"/><path id="path32" class="cls-34" d="M673,120.21a1.64,1.64,0,0,0-.32.05l-.34,0c-.68.09-1.44.17-2.12.21-.53,0-2.54.1-2.84-.18,0-.13.12-.21.21-.26a6.47,6.47,0,0,1,1-.35,5,5,0,0,0-2.07.56c-.46.29.31.4.59.44a16.9,16.9,0,0,0,4.92-.13.86.86,0,0,0,.51-.14,4.06,4.06,0,0,0,.41-.25"/><path id="path34" class="cls-34" d="M667.23,125.27a8.38,8.38,0,0,0,2,.36,16.19,16.19,0,0,0,2.31,0,8.15,8.15,0,0,0,3-.61c.2-.11.57-.35.6-.59a1.77,1.77,0,0,0-.17.12c-1.5,1-4.92.93-6.69.81l-1-.09"/><path id="path36" class="cls-34" d="M673.38,119.81a1.12,1.12,0,0,1,1,.16.82.82,0,0,1,.07,1,3.52,3.52,0,0,1-1.17,1.1l-.21.12a4.29,4.29,0,0,0,1.16-.47,1.94,1.94,0,0,0,.81-.84.88.88,0,0,0-.41-1.1,1.21,1.21,0,0,0-.67-.16.94.94,0,0,0-.6.21"/><circle class="cls-2" cx="705.88" cy="137.77" r="1.24"/><path class="cls-2" d="M705.88,140.69a13.44,13.44,0,0,1-4.47-.64,5.34,5.34,0,0,1-1.84-1,1.81,1.81,0,0,1-.76-1.3c0-.82.92-1.65,2.44-2.19a14.5,14.5,0,0,1,4.6-.66,15.49,15.49,0,0,1,4.57.66,5.08,5.08,0,0,1,1.77,1,1.76,1.76,0,0,1,.7,1.23c0,.86-1,1.75-2.66,2.28A13.87,13.87,0,0,1,705.88,140.69Zm0-5.14a14,14,0,0,0-4.4.67c-1.4.44-2,1.11-2,1.58s.66,1.21,2.15,1.72a13.47,13.47,0,0,0,4.28.57,14.67,14.67,0,0,0,4.19-.57c1.52-.51,2.25-1.24,2.25-1.72a1,1,0,0,0-.51-.79,4.34,4.34,0,0,0-1.58-.82A12.82,12.82,0,0,0,705.88,135.55Z"/><path class="cls-2" d="M703,144.05a1.08,1.08,0,0,1-.67-.16c-.7-.41-1-1.62-.66-3.2a13.42,13.42,0,0,1,1.71-4.31h0a14.84,14.84,0,0,1,2.85-3.62,6.34,6.34,0,0,1,1.71-1.08,1.68,1.68,0,0,1,1.46,0c.76.42,1,1.75.67,3.46a14.86,14.86,0,0,1-1.65,4.12,13.44,13.44,0,0,1-2.79,3.59,5,5,0,0,1-1.78,1.11A4.56,4.56,0,0,1,703,144.05Zm.92-7.39a14.26,14.26,0,0,0-1.65,4.16c-.29,1.45,0,2.37.38,2.56s1.36,0,2.57-1a16.39,16.39,0,0,0,2.66-3.39A14.93,14.93,0,0,0,709.5,135c.32-1.61,0-2.56-.38-2.82a1.3,1.3,0,0,0-1,0,5.49,5.49,0,0,0-1.53,1,13.36,13.36,0,0,0-2.72,3.45Z"/><path class="cls-2" d="M708.74,144.08a4.13,4.13,0,0,1-2.44-1.2,15.46,15.46,0,0,1-2.92-3.65h0a14.81,14.81,0,0,1-1.71-4.28,6.08,6.08,0,0,1-.07-2,1.87,1.87,0,0,1,.76-1.3c.76-.41,2,0,3.33,1.18a14.74,14.74,0,0,1,2.7,3.48,14.56,14.56,0,0,1,1.71,4.19,6.77,6.77,0,0,1,.1,2.06,1.82,1.82,0,0,1-.76,1.3A1.45,1.45,0,0,1,708.74,144.08ZM703.92,139a13.94,13.94,0,0,0,2.79,3.48c1.11.95,2,1.21,2.41.95s.7-1.2.41-2.72a13.58,13.58,0,0,0-1.65-4,15.84,15.84,0,0,0-2.63-3.36c-1.21-1.08-2.19-1.33-2.6-1.08a1,1,0,0,0-.41.83,4.62,4.62,0,0,0,0,1.77,13,13,0,0,0,1.65,4.13Z"/><path class="cls-2" d="M687.53,132.54l-5.36,1.88.84,7,4.52,2.48,4.54-2.52.85-7Zm2.27,8.34-.73-1.69h-3l-.66,1.66-1.24,0,3.31-7.38,3.47,7.4Z"/><polygon class="cls-2" points="688.64 138.21 687.52 135.87 686.54 138.21 688.64 138.21"/><g id="Kompozycja_2" data-name="Kompozycja 2"><g class="cls-73"><g class="cls-73"><path class="cls-2" d="M646.44,118.13a1.61,1.61,0,0,0,.07.54,2,2,0,0,0,.19.43.27.27,0,0,1,0,.14.26.26,0,0,1-.11.18l-.38.26a.37.37,0,0,1-.16,0,.29.29,0,0,1-.18-.08,1.48,1.48,0,0,1-.22-.29c-.06-.1-.12-.21-.19-.35a2.24,2.24,0,0,1-1.77.83,1.66,1.66,0,0,1-1.21-.44,1.51,1.51,0,0,1-.45-1.15,1.56,1.56,0,0,1,.55-1.25,2.23,2.23,0,0,1,1.48-.47,4.72,4.72,0,0,1,.64,0c.23,0,.46.08.7.13v-.44a1.34,1.34,0,0,0-.29-1,1.42,1.42,0,0,0-1-.27,2.46,2.46,0,0,0-.65.08,5,5,0,0,0-.66.2l-.21.08-.09,0c-.09,0-.13-.06-.13-.19v-.3a.41.41,0,0,1,0-.21.5.5,0,0,1,.17-.12,3.91,3.91,0,0,1,.76-.28,4.1,4.1,0,0,1,.94-.11,2.21,2.21,0,0,1,1.59.49,2,2,0,0,1,.5,1.48v2Zm-2.45.92a2,2,0,0,0,.62-.11,1.3,1.3,0,0,0,.57-.39,1,1,0,0,0,.21-.38,2.58,2.58,0,0,0,.06-.53v-.25a4.65,4.65,0,0,0-.56-.1,3.6,3.6,0,0,0-.56,0,1.4,1.4,0,0,0-.9.24.84.84,0,0,0-.3.7.77.77,0,0,0,.86.86m4.85.65a.35.35,0,0,1-.23-.06.52.52,0,0,1-.13-.24l-1.42-4.66a.82.82,0,0,1,0-.24c0-.1,0-.16.14-.16h.59a.35.35,0,0,1,.24.06.59.59,0,0,1,.12.24l1,4,.95-4a.45.45,0,0,1,.11-.24.46.46,0,0,1,.24-.06h.49a.38.38,0,0,1,.24.06.41.41,0,0,1,.11.24l1,4,1-4a.65.65,0,0,1,.12-.24.46.46,0,0,1,.24-.06h.56c.1,0,.15,0,.15.16s0,.06,0,.09,0,.09,0,.15l-1.46,4.67a.52.52,0,0,1-.13.24.42.42,0,0,1-.23.06h-.52a.38.38,0,0,1-.24-.06.42.42,0,0,1-.11-.25l-.94-3.89-.93,3.89a.45.45,0,0,1-.11.24.4.4,0,0,1-.24.06Zm7.76.16a4.08,4.08,0,0,1-.93-.1,3,3,0,0,1-.7-.25.46.46,0,0,1-.19-.17.45.45,0,0,1,0-.16v-.31c0-.13,0-.19.14-.19l.11,0,.15.06a3.39,3.39,0,0,0,.66.21,3.51,3.51,0,0,0,.72.07,1.55,1.55,0,0,0,.88-.2.63.63,0,0,0,.32-.57.57.57,0,0,0-.17-.42,1.47,1.47,0,0,0-.61-.32l-.87-.27a1.87,1.87,0,0,1-1-.61,1.46,1.46,0,0,1-.3-.88,1.33,1.33,0,0,1,.16-.67,1.74,1.74,0,0,1,.44-.5,2,2,0,0,1,.62-.31,2.8,2.8,0,0,1,.77-.1,2.68,2.68,0,0,1,.4,0l.39.07.35.09.25.11a.47.47,0,0,1,.18.15.32.32,0,0,1,.06.2v.29c0,.12,0,.19-.14.19a.56.56,0,0,1-.23-.07,2.74,2.74,0,0,0-1.16-.24,1.56,1.56,0,0,0-.8.17.59.59,0,0,0-.29.54.58.58,0,0,0,.18.43,1.87,1.87,0,0,0,.67.33l.85.27a1.83,1.83,0,0,1,.94.58,1.36,1.36,0,0,1,.28.85,1.6,1.6,0,0,1-.16.7,1.71,1.71,0,0,1-.44.53,2,2,0,0,1-.67.34,3,3,0,0,1-.86.12"/><path class="cls-34" d="M657.74,122.8a13,13,0,0,1-7.36,2.25,13.3,13.3,0,0,1-9-3.43c-.18-.17,0-.4.21-.26a17.86,17.86,0,0,0,15.84,1c.33-.15.61.22.29.46"/><path class="cls-34" d="M658.57,121.86c-.26-.33-1.68-.16-2.33-.08-.19,0-.22-.15,0-.27a3.61,3.61,0,0,1,3.22-.31,3.55,3.55,0,0,1-1.12,3c-.17.13-.32.06-.25-.12.24-.6.78-1.94.53-2.26"/></g></g></g><text class="cls-74" transform="translate(132.29 405.42)">AND MORE ...</text><text class="cls-75" transform="translate(691.85 270.77)"><tspan class="cls-76">L</tspan><tspan x="4.07" y="0">UBLIN AI MEE</tspan><tspan class="cls-77" x="53.5" y="0">T</tspan><tspan x="57.71" y="0">UP</tspan></text><g id="Vector_Smart_Object-5" data-name="Vector Smart Object"><g class="cls-78"><g class="cls-78"><path class="cls-2" d="M59.33,371.79c-1.58,0-2.48.68-2.48,1.86s.9,1.84,2.48,1.84,2.47-.67,2.47-1.84-.9-1.86-2.47-1.86m0,2.85c-.86,0-1.3-.33-1.3-1s.44-1,1.3-1,1.3.33,1.3,1-.44,1-1.3,1m2.8-2.76v.79h1.49v2.45c0,.24.35.32.65.32s.66-.08.66-.32v-2.45h1.49v-.79Zm12.23,2.71a1.24,1.24,0,0,1-.75-.18.66.66,0,0,1-.2-.54v-1.73c0-.23-.34-.31-.63-.31s-.63.08-.63.3v1.68a1.41,1.41,0,0,0,.61,1.33,5.25,5.25,0,0,0,2.3.27h1.1v-.82ZM54,374.32c0,.63.53,1.05,1.42,1.13v-3.77h2v-.87H52.19v.87H54Zm17.66,1.09,0-.14a7.62,7.62,0,0,0-2.28-3.35.67.67,0,0,0-.38-.09.68.68,0,0,0-.39.09,7.46,7.46,0,0,0-2.27,3.35l0,.14h1.17l0-.1a3.93,3.93,0,0,1,.22-.66h2.56a4,4,0,0,1,.23.66l0,.1Zm-3.56-1.5a6.29,6.29,0,0,1,.87-1.06,7.13,7.13,0,0,1,.86,1.06Z"/><path class="cls-2" d="M48.86,373a.24.24,0,0,0,0-.08c-.86,1-3,1.62-4.88,1.48a11.83,11.83,0,0,1-4.24-1.3,9.52,9.52,0,0,0,3.86,2.3,6.87,6.87,0,0,0,4.65-.06,1.93,1.93,0,0,0,.63-2.34"/><path class="cls-2" d="M46.47,366.79c3.43,2,1.39,8.39-1.34,10.44-2.54,1.9-5.24,1-5.83-.73a2.1,2.1,0,0,0,2.43.73c2.51-1,3.8-5.54,4-7.12a3.93,3.93,0,0,0-.54-2.84,2.34,2.34,0,0,0-2.58-.47,3.77,3.77,0,0,1,3.89,0"/><path class="cls-2" d="M48.39,375.21l0,0h0a1.3,1.3,0,0,0,.2-.15l.09-.09a4.59,4.59,0,0,0-1.67-6.9,7.31,7.31,0,0,0-6.6-.15,5.06,5.06,0,0,0-2.32,2.67,2.79,2.79,0,0,1,2.25-1.2,10.87,10.87,0,0,1,4.67.64,9,9,0,0,1,2.65,1.45,3.71,3.71,0,0,1,1.13,1.45.64.64,0,0,1,0,.07,1.93,1.93,0,0,1-.63,2.34h0l.11-.07h0l0,0"/><path class="cls-2" d="M38.56,372.72a4.5,4.5,0,0,0,.3.38c.66-1.55,4.27-2.55,5.33-2.54-2.39-.77-4.73-.4-5.68.41a1.36,1.36,0,0,0,.05,1.75"/><path class="cls-2" d="M45.6,376.24a9.79,9.79,0,0,1-6.71-3.1l0,0a3.32,3.32,0,0,1-.3-.38,1.36,1.36,0,0,1-.05-1.75,3,3,0,0,0-.22.24,3.19,3.19,0,0,0-.22,2.85c.75,2.45,4.06,3.93,6.74,3.52A6.11,6.11,0,0,0,48,376a7.06,7.06,0,0,1-2.44.27"/></g></g></g></svg>